<svg width="191" height="191" viewBox="0 0 191 191" fill="none" xmlns="http://www.w3.org/2000/svg">
<circle cx="95.5" cy="95.5" r="95.5" fill="#F0F0F0"/>
<g clip-path="url(#clip0_545_43)">
<path opacity="0.7" d="M99.209 113.511C116.33 113.511 130.209 99.5176 130.209 82.2556C130.209 64.9936 116.33 51 99.209 51C82.0882 51 68.209 64.9936 68.209 82.2556C68.209 99.5176 82.0882 113.511 99.209 113.511Z" fill="#49C26D"/>
<path d="M104.102 149.241C104.831 144.615 106.059 140.066 107.863 135.707C108.746 133.528 109.782 131.387 110.895 129.323C111.471 128.291 112.047 127.258 112.661 126.264L114.426 123.244C115.616 121.218 116.959 119.23 118.533 117.395C118.916 116.936 119.377 116.439 119.837 116.057C120.336 115.636 120.835 115.292 121.373 114.948C122.409 114.298 123.522 113.763 124.558 113.266C125.594 112.769 126.631 112.272 127.552 111.698C128.012 111.392 128.434 111.086 128.857 110.742C129.279 110.398 129.701 110.016 130.123 109.634C131.735 108.066 133.155 106.269 134.575 104.434C135.304 103.517 135.995 102.599 136.801 101.643C137.607 100.726 138.49 99.8846 139.449 99.12C141.33 97.5908 143.325 96.2909 145.359 95.0675C147.394 93.8823 149.389 92.7354 151.308 91.4737C153.227 90.2121 155.069 88.8358 156.604 87.1918C157.372 86.389 158.024 85.4714 158.447 84.5156C158.869 83.5598 158.946 82.5276 158.562 81.61C158.37 81.1513 158.101 80.6925 157.794 80.4631C157.487 80.2337 157.103 80.1572 156.604 80.2719C156.144 80.3866 155.645 80.6543 155.184 80.9219C154.724 81.2277 154.263 81.5718 153.841 81.9159C152.958 82.6423 152.114 83.4451 151.193 84.2098C150.272 84.8979 149.389 85.6626 148.507 86.4272C147.585 87.1918 146.664 87.9182 145.666 88.5682C144.669 89.1799 143.517 89.7533 142.251 89.868L141.829 89.9063L141.867 89.4475C141.905 88.8358 142.097 88.3005 142.366 87.8035C142.635 87.3065 142.942 86.8477 143.287 86.4272C143.978 85.5861 144.784 84.8597 145.59 84.1715C146.396 83.4834 147.24 82.8334 148.046 82.1835L150.464 80.1572C152.076 78.8192 153.649 77.4428 155.184 75.99C156.72 74.5755 158.293 73.1609 159.444 71.4787C159.982 70.6376 160.442 69.7201 160.442 68.7643C160.442 67.8085 160.135 66.8145 159.598 65.9734C159.061 65.1705 158.293 64.4824 157.372 64.2912C156.911 64.2148 156.451 64.253 155.99 64.4059C155.76 64.4824 155.568 64.5971 155.338 64.7118C155.108 64.8265 154.916 64.9794 154.724 65.1323C153.074 66.3175 151.807 67.9997 150.464 69.6436C149.811 70.4465 149.082 71.2876 148.315 72.014C147.547 72.7404 146.779 73.4668 146.012 74.1932C144.477 75.6077 142.865 77.0223 141.406 78.4751C140.677 79.2397 139.986 80.0426 139.18 80.7307C138.758 81.0748 138.336 81.4571 137.876 81.7247C137.645 81.8777 137.377 81.9924 137.07 82.107C136.763 82.1835 136.417 82.26 136.072 82.1453C135.726 82.0688 135.419 81.8012 135.227 81.5336C135.036 81.266 134.92 80.9983 134.805 80.7307L134.728 80.5396L134.69 80.3102C134.652 80.1572 134.652 80.0043 134.652 79.8514C134.652 79.5455 134.728 79.2397 134.805 78.9721C135.151 77.8634 135.726 76.9458 136.34 76.0665C136.954 75.1872 137.645 74.3843 138.374 73.5815C139.065 72.7786 139.794 72.014 140.524 71.2493C143.479 68.2291 146.664 65.4764 149.504 62.4179C150.924 60.8886 152.229 59.2829 153.342 57.5243C153.918 56.6832 154.34 55.7656 154.532 54.8098C154.724 53.8541 154.647 52.8983 154.187 52.0954C153.726 51.2926 152.958 50.6809 152.076 50.4515C151.193 50.2221 150.195 50.3368 149.274 50.6809C148.814 50.8338 148.391 51.0632 148.008 51.369C147.816 51.5219 147.624 51.6749 147.47 51.8278L146.933 52.363C146.204 53.0894 145.513 53.8541 144.861 54.6951C142.251 57.9448 140.178 61.5768 137.569 64.9794C136.264 66.6616 134.882 68.2673 133.347 69.7965C132.579 70.5612 131.773 71.2493 130.929 71.9375C130.046 72.5874 129.164 73.2374 128.089 73.6961C127.82 73.8108 127.513 73.9255 127.129 73.9255C126.938 73.9255 126.707 73.9255 126.439 73.8108C126.17 73.7344 125.94 73.4668 125.825 73.2374C125.594 72.7404 125.633 72.3963 125.671 72.0904C125.709 71.7846 125.786 71.4787 125.863 71.2111C126.016 70.6376 126.285 70.1024 126.592 69.6054C126.899 69.1084 127.245 68.6878 127.59 68.2673C129.01 66.5851 130.699 65.2852 132.08 63.7942C133.5 62.265 134.882 60.6975 136.148 59.0535L137.108 57.7919C137.453 57.3713 137.76 56.9508 138.106 56.5303C138.797 55.7274 139.449 54.9245 140.025 54.1217C140.6 53.3188 141.099 52.4395 141.291 51.5984C141.483 50.7573 141.253 49.9927 140.716 49.3045L140.485 49.0369L140.255 48.8075C140.102 48.6546 139.871 48.4634 139.756 48.387C139.449 48.1958 139.142 48.1193 138.797 48.1576C138.067 48.234 137.261 48.7693 136.532 49.4192C136.187 49.7633 135.841 50.1074 135.496 50.4897C135.151 50.872 134.844 51.2543 134.498 51.6749C133.807 52.516 133.155 53.3188 132.464 54.1217C131.773 54.9245 131.082 55.7274 130.43 56.5303C129.778 57.3331 129.125 58.136 128.473 58.9771C125.863 62.3032 123.176 65.5529 120.375 68.7261L119.339 69.9112L118.341 71.0964C117.65 71.8993 116.959 72.7404 116.23 73.505C115.462 74.3078 114.695 75.0725 113.774 75.7606C113.313 76.1047 112.776 76.4488 112.123 76.6782C111.778 76.7929 111.394 76.9076 110.934 76.8694C110.473 76.8694 109.936 76.6782 109.59 76.3723C109.207 76.0665 108.976 75.6842 108.823 75.3783C108.669 75.0725 108.554 74.6519 108.516 74.3078C108.439 73.5815 108.516 72.9697 108.631 72.358C108.899 71.1729 109.36 70.1789 109.821 69.1848C110.281 68.1908 110.818 67.2733 111.279 66.3557C111.509 65.8969 111.74 65.4382 111.931 64.9794C112.047 64.75 112.123 64.5588 112.2 64.3295C112.238 64.2148 112.277 64.1383 112.315 64.0236L112.43 63.6795C112.699 62.7237 112.853 61.768 112.853 60.8886C112.853 60.0093 112.622 59.2447 112.123 58.7859C111.893 58.5565 111.586 58.3271 111.202 58.2124C110.818 58.0595 110.396 57.9448 109.974 57.9066C109.207 57.7919 108.477 58.0213 107.825 58.4801C107.172 58.9771 106.558 59.7035 106.059 60.5063C105.561 61.3092 105.1 62.2267 104.678 63.1443C104.217 64.1001 103.833 64.9794 103.45 65.9734C103.104 66.9292 102.759 67.885 102.452 68.879C101.838 70.867 101.262 72.8933 100.533 74.9196C100.341 75.4166 100.149 75.9518 99.9572 76.4106C99.7653 76.9076 99.5734 77.3664 99.4199 77.8634C99.0745 78.8192 98.7675 79.8132 98.4604 80.8072C97.8464 82.7952 97.3475 84.7832 96.8869 86.8095C96.6566 87.8035 96.4264 88.874 96.1961 89.9063C95.9274 90.9385 95.6588 91.9707 95.3134 93.003C94.0085 97.0938 92.1279 101.146 89.2111 104.511C88.4819 105.352 87.7144 106.155 86.87 106.881C86.0641 107.607 85.2197 108.257 84.3754 108.945C82.6867 110.245 80.9981 111.507 79.4245 112.807C77.8126 114.107 76.3158 115.483 75.0493 117.012C73.7828 118.542 72.7082 120.224 72.0558 122.059C71.4033 123.856 71.1731 125.767 71.5569 127.602C71.7487 128.52 72.0558 129.438 72.4779 130.279C72.9001 131.158 73.4374 131.961 74.0131 132.764C75.2029 134.331 76.6996 135.707 78.3115 136.969C79.9618 138.231 81.6505 139.492 83.3392 140.754C85.0278 141.977 86.7165 143.201 88.4819 144.348C90.2857 145.495 91.9744 146.718 93.7398 147.674C94.6226 148.171 95.5436 148.591 96.4264 148.859C96.8869 148.974 97.3091 149.05 97.6545 149.05C97.808 149.05 98.0383 149.012 98.1918 148.936C98.3453 148.897 98.4221 148.821 98.3837 148.859L98.3453 148.936C98.3453 148.936 98.3453 148.936 98.3453 148.859C98.3069 148.744 98.2302 148.591 98.115 148.4C97.8848 148.056 97.5393 147.712 97.1939 147.368C96.4647 146.68 95.6588 146.068 94.8528 145.495C94.4307 145.189 94.0085 144.921 93.5863 144.692L92.2047 143.889C91.2836 143.354 90.3625 142.818 89.4798 142.245C87.676 141.098 85.9489 139.836 84.2986 138.422C81.0748 135.555 78.3883 132.267 75.8169 128.94L74.8574 127.679C74.5504 127.258 74.205 126.876 73.8596 126.494C73.1688 125.729 72.4396 124.926 71.7487 124.123C71.4033 123.703 71.0963 123.282 70.7893 122.823C70.4822 122.403 70.2136 121.868 70.0217 121.371C69.6379 120.338 69.5228 119.306 69.0622 118.389L69.3693 118.503C67.8725 119.344 66.7595 120.721 65.4162 121.906C64.7254 122.479 63.9578 122.938 63.2286 123.435C62.8832 123.703 62.5378 123.932 62.1924 124.238C61.8854 124.506 61.5783 124.812 61.3481 125.156C61.1562 125.461 61.041 125.882 61.041 126.303C61.041 126.723 61.1178 127.105 61.2329 127.526C61.4632 128.329 61.8854 129.093 62.3459 129.82C63.3054 131.273 64.4568 132.572 65.6849 133.796C65.9919 134.102 66.2989 134.446 66.606 134.713C66.913 134.981 67.2968 135.249 67.6422 135.478C68.3714 135.937 69.139 136.357 69.9066 136.854C70.2904 137.084 70.6741 137.351 70.9812 137.695C71.1347 137.887 71.2882 138.078 71.4033 138.307C71.4801 138.537 71.5185 138.842 71.4033 139.11C71.2114 139.607 70.866 139.951 70.5206 140.219C70.1752 140.525 69.7914 140.754 69.4076 140.983C68.6401 141.442 67.7957 141.786 66.9514 142.054C66.5292 142.207 66.1071 142.283 65.6465 142.398C65.2243 142.513 64.7638 142.551 64.3032 142.589C63.4205 142.627 62.5378 142.627 61.6935 142.742C61.2713 142.78 60.8491 142.857 60.427 142.971C60.0432 143.086 59.6594 143.277 59.4675 143.583L59.3908 143.277C60.2735 143.851 61.2329 144.233 62.2692 144.386C63.3054 144.539 64.38 144.462 65.4162 144.348C66.4908 144.233 67.5271 144.042 68.6017 143.889C69.6763 143.774 70.7125 143.583 71.7487 143.354C72.785 143.124 73.8212 142.818 74.7807 142.474C75.2796 142.283 75.7402 142.016 76.2007 141.786C76.6612 141.557 77.1986 141.251 77.8126 141.213C78.1196 141.213 78.4267 141.289 78.6953 141.404C78.964 141.519 79.1943 141.71 79.4245 141.901C79.8467 142.283 80.1921 142.704 80.4991 143.163C80.8062 143.621 81.1132 144.118 81.19 144.73C81.2283 145.036 81.19 145.38 81.0748 145.648C80.9597 145.953 80.7294 146.183 80.4991 146.374C80.0386 146.756 79.5013 146.986 79.0024 147.177C78.4651 147.368 77.9661 147.483 77.4288 147.636C76.3542 147.865 75.3564 148.094 74.2818 148.362C72.1709 148.859 70.0601 149.241 67.9109 149.509C65.7616 149.777 63.6124 149.891 61.4248 149.815C59.2756 149.738 57.088 149.394 55.0156 148.744C53.9793 148.4 52.9431 148.018 51.9836 147.521C51.4847 147.253 51.0242 146.986 50.5636 146.718C50.1031 146.412 49.6425 146.03 49.2971 145.571C48.9517 145.112 48.7214 144.577 48.5679 144.004C48.4528 143.43 48.4144 142.857 48.4144 142.321C48.4528 141.213 48.683 140.142 48.8366 139.11C49.1052 137.007 49.3739 134.866 49.7193 132.764L50.7555 126.417C51.3696 122.212 51.1393 117.968 51.0625 113.648C51.0625 111.507 51.0625 109.366 50.909 107.263C50.8323 106.193 50.6787 105.161 50.4869 104.128C50.2566 103.096 50.0263 102.064 49.7577 101.032C48.7214 96.9026 47.4933 92.8118 45.9965 88.8358C45.2673 86.8477 44.4614 84.8597 43.617 82.9099C42.7727 80.9601 41.7365 79.125 40.7002 77.2134C40.2013 76.2576 39.7024 75.3019 39.2802 74.3078C39.0499 73.8108 38.8581 73.3138 38.7045 72.7786C38.5126 72.2816 38.3591 71.7463 38.2056 71.2493C37.7451 69.2613 36.9391 67.235 36.5169 65.0941C36.2867 64.0236 36.1715 62.9149 36.2483 61.768L36.2867 61.3474C36.325 61.1945 36.325 61.0416 36.3634 60.8886C36.4402 60.5828 36.5169 60.3152 36.6321 60.0475C36.8624 59.5123 37.1694 59.0153 37.4764 58.5565C38.1672 57.639 39.0116 56.8361 40.1246 56.3391C40.6619 56.1097 41.3143 55.9568 41.9284 56.0332C42.2354 56.0715 42.5424 56.1479 42.8495 56.2626C43.1949 56.4156 43.4635 56.6832 43.6554 56.9126C44.0392 57.4096 44.3079 57.9066 44.5381 58.4036C44.7684 58.9006 44.9603 59.4358 45.1138 59.9328C45.4592 60.9651 45.7279 61.9973 45.9965 63.0678C46.15 63.6031 46.2652 64.1001 46.4187 64.5971C46.5722 65.0941 46.7641 65.5911 46.9176 66.0881L47.4549 67.6174L47.7236 68.382C47.8003 68.6496 47.8771 68.9555 47.9538 69.2231C48.1841 70.3318 48.2609 71.364 48.683 72.1669C48.9133 72.5874 49.182 73.008 49.489 73.2756C49.6425 73.3903 49.796 73.4285 49.796 73.4285C49.796 73.4285 49.9112 73.3903 49.9879 73.1991C50.1798 72.8551 50.295 72.358 50.295 71.8993C50.295 71.4405 50.2182 70.9817 50.0647 70.4847C49.796 69.5289 49.2587 68.5349 48.9901 67.4644C48.4144 65.3617 48.1074 63.2207 47.7236 61.118C47.5317 60.0858 47.3398 59.0153 47.1095 57.983C46.8792 56.9508 46.6106 55.8803 46.3803 54.8481C45.9581 52.7453 45.6127 50.5662 45.6895 48.3487C45.6895 47.7753 45.7663 47.24 45.843 46.6666C45.9581 46.0549 46.15 45.4814 46.4955 44.9461C47.1479 43.8757 48.2993 43.1493 49.5274 42.9581C50.7555 42.7287 52.022 43.0728 53.0199 43.7227C53.5572 44.0668 53.9793 44.5256 54.3247 45.0608C54.6702 45.5578 54.9004 46.1313 55.0539 46.6666C55.3993 47.7753 55.5529 48.8457 55.668 49.9162C55.7448 50.4515 55.7831 50.9867 55.8599 51.4837L55.975 52.2866C56.0134 52.5542 56.0518 52.8218 56.0902 53.0894C56.3204 55.2686 56.2437 57.4478 56.2821 59.5505C56.2821 61.6533 56.474 63.756 56.7042 65.8969C56.781 66.9674 56.8961 68.0379 56.9345 69.1466L56.9729 69.9495V70.37V70.5612C56.9729 70.6376 56.9729 70.7141 56.9729 70.7906C56.9345 71.3258 56.8961 71.861 56.9345 72.3198C56.9345 72.5492 56.9729 72.7786 57.0113 72.9697C57.0496 73.0462 57.0496 73.1227 57.088 73.1609C57.1264 73.1991 57.1264 73.1991 57.088 73.1609C57.0496 73.1609 57.0113 73.1609 57.0496 73.1609C57.088 73.1609 57.1648 73.1227 57.2415 73.0844C57.2415 73.0844 57.2415 73.0844 57.2799 73.0462C57.3183 73.008 57.3183 72.9315 57.3567 72.8551C57.4718 72.4727 57.4718 71.9375 57.4718 71.4405C57.4718 70.9435 57.4334 70.4082 57.3951 69.873C57.3951 69.7201 57.3951 69.6054 57.3951 69.4525V69.0319V68.2291V66.6233C57.3951 65.5529 57.3951 64.4824 57.3567 63.4501C57.3183 62.3797 57.2415 61.3474 57.1648 60.3152C57.0496 59.2447 56.9345 58.2124 56.8194 57.142C56.5507 55.0392 56.2821 52.8983 56.0902 50.7573L55.975 49.1516L55.8215 47.5841C55.7064 46.5136 55.6296 45.4432 55.5912 44.3727C55.5529 43.3022 55.5145 42.1935 55.5912 41.0848C55.6296 40.5113 55.7064 39.9761 55.8215 39.4026C55.975 38.7909 56.1669 38.2174 56.5507 37.6439C56.9345 37.0705 57.5102 36.6499 58.0859 36.3823C58.6999 36.1147 59.314 36.0382 59.9281 36C61.1562 36 62.3075 36.3059 63.3822 36.8793C63.9195 37.1469 64.4184 37.5293 64.8406 38.0263C65.2627 38.485 65.5697 39.0203 65.8384 39.5938C66.3373 40.7025 66.5292 41.8494 66.606 42.9581C66.7211 44.0668 66.7211 45.1755 66.7211 46.246V49.4574L66.5676 62.3032V65.5146C66.5676 66.0499 66.606 66.5469 66.5292 67.1586L66.4141 68.7643C66.3373 69.8348 66.2606 70.867 66.2222 71.8993C66.2222 72.4345 66.2222 72.9315 66.2606 73.4285C66.299 73.6579 66.299 73.8873 66.3757 74.1167C66.4141 74.3078 66.4908 74.499 66.4908 74.499C66.4908 74.499 66.4525 74.4608 66.4141 74.4608C66.3757 74.4608 66.3757 74.4225 66.3373 74.4225C66.299 74.4225 66.3373 74.4225 66.299 74.4225C66.2606 74.4225 66.1838 74.4225 66.1838 74.4608C66.1454 74.499 66.2606 74.3843 66.3373 74.2314C66.4908 73.8873 66.606 73.3903 66.6827 72.8933C66.8363 71.8993 66.8746 70.867 66.913 69.7965C66.9514 68.7643 66.913 67.6938 66.8746 66.6233C66.8746 66.3557 66.8746 66.0499 66.8746 65.7822V64.9794L66.913 63.3737C66.9898 59.0918 67.0282 54.8098 67.22 50.5279C67.3352 48.387 67.4887 46.246 67.6806 44.1051C67.7573 43.5698 67.7957 43.0346 67.8725 42.4611C67.9492 41.8876 68.1028 41.3142 68.2947 40.7407C68.4865 40.1672 68.7552 39.5938 69.139 39.0967C69.5228 38.5615 70.0601 38.1027 70.7125 37.7969C71.365 37.491 72.1325 37.4146 72.785 37.5293C73.4758 37.6057 74.0515 37.8351 74.5888 38.141C75.1261 38.4086 75.6634 38.7909 76.1239 39.2114C76.5845 39.6702 76.9683 40.2055 77.2369 40.7789C77.7742 41.9259 77.9661 43.0728 78.0813 44.1815C78.1964 45.2902 78.1964 46.3607 78.2348 47.4312C78.4651 51.7131 78.5802 55.995 78.6186 60.2769C78.6569 62.4179 78.6569 64.5588 78.6569 66.6998C78.6569 68.879 78.5802 70.9817 78.5418 73.1227C78.5418 75.2254 78.5802 77.3281 78.8105 79.3926C79.0407 81.4571 79.5397 83.4451 80.3456 85.2803L78.4651 85.4714C78.964 83.0628 79.3861 80.616 79.8851 78.1692C80.384 75.7224 80.9213 73.2756 81.7273 70.8288C82.1494 69.6054 82.6483 68.4202 83.3392 67.2733C83.6846 66.6998 84.03 66.1646 84.4905 65.6293C84.9511 65.0941 85.45 64.5971 86.1024 64.2148C86.7549 63.8324 87.6376 63.6413 88.4436 63.7942C89.2495 63.9471 89.902 64.4059 90.4009 64.8647C90.6695 65.0941 90.9382 65.3617 91.1301 65.6676C91.3604 65.9734 91.5139 66.2793 91.6674 66.5851C91.9744 67.235 92.1279 67.885 92.2814 68.4967C92.7804 71.0964 92.5885 73.6197 92.3966 76.1047L92.2431 77.9398C92.2047 78.2457 92.2047 78.5515 92.2047 78.8574C92.2047 79.1632 92.2047 79.5073 92.1663 79.8132C92.0512 81.113 91.7441 82.3364 91.3987 83.5216C90.6695 85.9302 89.7868 88.2241 88.9425 90.5944C88.5203 91.7796 88.1365 92.9265 87.7911 94.1117C87.4841 95.2969 87.1771 96.5203 87.1387 97.7437H86.87C86.87 96.4821 87.1003 95.2204 87.3689 94.0352C87.676 92.8118 88.0214 91.6267 88.4052 90.4415C89.1728 88.0711 89.9787 85.739 90.5928 83.3305C90.8998 82.1453 91.1685 80.9601 91.2452 79.7367C91.2452 79.5838 91.2452 79.4309 91.2452 79.2779C91.2452 79.125 91.2452 78.9721 91.2452 78.8192C91.2452 78.5133 91.2452 78.1692 91.2452 77.8634L91.322 75.99C91.3604 74.7666 91.3987 73.505 91.3604 72.3198C91.322 71.0964 91.2068 69.9112 90.9382 68.7643C90.7847 68.1908 90.6312 67.6556 90.3625 67.1586C90.2474 66.9292 90.0938 66.6998 89.9403 66.5086C89.7868 66.3175 89.5949 66.1263 89.403 65.9352C88.9809 65.5911 88.5587 65.3235 88.0981 65.2852C87.676 65.2088 87.2538 65.3235 86.87 65.5529C86.0257 66.0499 85.3732 67.0439 84.7976 68.0761C84.2219 69.1084 83.7997 70.2171 83.4159 71.364C83.0705 72.4727 82.7635 73.6961 82.4948 74.8813C82.2262 76.0665 81.9959 77.2899 81.7656 78.4751C81.3051 80.8836 80.8829 83.3687 80.3456 85.8155L79.6548 88.8358L78.4267 86.0449C77.5056 83.9804 77.0067 81.763 76.738 79.5838C76.4694 77.4046 76.431 75.2254 76.4694 73.0462C76.5077 70.9053 76.5845 68.7643 76.5845 66.6233C76.5845 64.4824 76.5845 62.3414 76.5845 60.2387C76.5461 55.9568 76.4694 51.7131 76.2391 47.4694C76.2007 46.3989 76.1623 45.3285 76.0856 44.2962C76.0088 43.3022 75.8169 42.3082 75.4331 41.5053C75.0493 40.7025 74.4353 40.0908 73.6293 39.6702C72.8234 39.2497 71.979 39.0967 71.3266 39.4026C70.6741 39.6702 70.1368 40.4348 69.8298 41.3142C69.6763 41.7347 69.5612 42.2317 69.4844 42.6905C69.4076 43.1875 69.3693 43.7227 69.2925 44.258C69.0622 46.3607 68.9087 48.5017 68.7936 50.6044C68.5633 54.8481 68.4865 59.13 68.4098 63.4119L68.3714 65.0176V65.8205C68.3714 66.0881 68.3714 66.3175 68.3714 66.5851C68.4098 67.6556 68.4098 68.7261 68.3714 69.8348C68.333 70.9435 68.2947 72.014 68.1028 73.1227C68.026 73.6961 67.9109 74.2696 67.6422 74.8813C67.5655 75.0342 67.4887 75.1872 67.3736 75.3783C67.2584 75.5312 67.0665 75.7224 66.8363 75.8753C66.5676 76.0283 66.2222 76.1047 65.9152 76.0665C65.8384 76.0665 65.8 76.0665 65.6849 76.0283C65.6081 75.99 65.493 75.9518 65.4162 75.9136C65.2627 75.8371 65.1092 75.7224 65.0324 75.6077C64.8406 75.3783 64.7638 75.1872 64.687 75.0342C64.6103 74.8431 64.5719 74.6902 64.5335 74.5372C64.4568 74.2314 64.4184 73.9255 64.4184 73.6197C64.38 73.0462 64.38 72.4727 64.38 71.9375C64.4184 70.8288 64.4951 69.7583 64.5719 68.6878L64.687 67.1203C64.7254 66.6616 64.687 66.0881 64.7254 65.5529L64.7638 62.3414L65.186 49.381V46.1695C65.186 45.0991 65.186 44.0668 65.1092 43.0346C65.0324 42.0023 64.8406 41.0083 64.4568 40.1672C64.2649 39.7467 64.0346 39.3261 63.7276 39.0203C63.4589 38.6762 63.1135 38.4086 62.6913 38.1792C61.8854 37.7204 60.8875 37.491 59.9664 37.491C59.0453 37.491 58.201 37.7969 57.7788 38.485C57.5486 38.7909 57.3951 39.2497 57.3183 39.7084C57.2032 40.1672 57.1648 40.6642 57.1264 41.1995C57.0496 42.2317 57.088 43.264 57.1264 44.3344C57.1648 45.3667 57.2799 46.4372 57.3567 47.5076L57.4718 49.1134L57.5869 50.7191C57.7405 52.8218 58.0091 54.9245 58.2778 57.0655C58.3929 58.136 58.508 59.2065 58.6232 60.2769C58.7383 61.3474 58.7767 62.4561 58.8151 63.5266C58.8534 64.5971 58.8534 65.6676 58.8534 66.738V68.3438V69.1466V69.5289V69.9112C58.8918 70.4465 58.9302 70.9817 58.9302 71.5552C58.9302 72.1287 58.9302 72.6639 58.7383 73.3521C58.6999 73.505 58.6232 73.6961 58.508 73.8873C58.4697 73.9638 58.3929 74.0785 58.2778 74.1932C58.2394 74.2314 58.1626 74.2696 58.1242 74.3461C58.0475 74.3843 57.9707 74.4225 57.9707 74.4608C57.8172 74.5372 57.6253 74.6137 57.3951 74.6519C57.1648 74.6902 56.8577 74.6902 56.5891 74.5755C56.3204 74.4225 56.1285 74.2314 56.0134 74.0402C55.8983 73.8491 55.8599 73.6579 55.7831 73.505C55.7064 73.1609 55.668 72.8551 55.668 72.5874C55.6296 72.014 55.668 71.4405 55.7064 70.9053V70.7523V70.5612V70.1789L55.668 69.376C55.6296 68.3438 55.5529 67.2733 55.4761 66.2028C55.2842 64.1001 55.0923 61.9209 55.0923 59.7417C55.0923 57.6007 55.1307 55.4598 54.9388 53.3953C54.9004 53.1277 54.9004 52.86 54.862 52.6307L54.7085 51.6749C54.6318 51.1396 54.5934 50.6044 54.5166 50.0691C54.4015 49.0369 54.2864 48.0047 53.9793 47.0489C53.6723 46.0931 53.2118 45.252 52.4442 44.7932C51.6766 44.2962 50.7171 44.0668 49.796 44.2197C48.9133 44.3727 48.069 44.9079 47.6084 45.6725C47.3782 46.0549 47.1863 46.4754 47.1095 46.9342C47.0328 47.4312 46.956 47.9282 46.956 48.4634C46.8792 50.5279 47.1863 52.6307 47.6084 54.6951C47.8003 55.7274 48.069 56.7596 48.2993 57.7919C48.5295 58.8624 48.7214 59.9328 48.9133 60.9651C49.2587 63.0678 49.5658 65.1705 50.1031 67.1968C50.3333 68.1908 50.8323 69.1084 51.1393 70.2171C51.2928 70.7523 51.4079 71.364 51.4079 71.9757C51.3696 72.6257 51.2928 73.1609 50.9474 73.7726C50.8706 73.9255 50.7555 74.0785 50.602 74.2314C50.4485 74.3843 50.2182 74.499 49.9879 74.5372C49.7193 74.5755 49.489 74.5372 49.2971 74.4608C49.1052 74.3843 48.9517 74.2696 48.7982 74.1932C48.2609 73.7726 47.9538 73.2374 47.6852 72.7404C47.1863 71.5552 47.1863 70.4082 46.956 69.4525C46.9176 69.1848 46.8409 68.9555 46.7641 68.7261L46.4955 67.9614L45.9581 66.4704C45.7663 65.9734 45.6127 65.4382 45.4208 64.9412C45.2673 64.4059 45.1138 63.8707 44.9987 63.3737C44.73 62.3414 44.4614 61.3092 44.1543 60.3152C44.0008 59.8182 43.8089 59.3211 43.617 58.8624C43.4251 58.4036 43.1949 57.9448 42.8878 57.6007C42.7343 57.4478 42.5808 57.2949 42.4657 57.2184C42.2738 57.142 42.0435 57.0655 41.8516 57.0655C41.4294 57.0273 40.9689 57.1037 40.5467 57.2949C39.664 57.6772 38.8964 58.3654 38.3207 59.1682C38.0137 59.5888 37.7834 60.0093 37.5916 60.4681C37.5148 60.6975 37.3997 60.9269 37.3613 61.1563C37.3229 61.2709 37.3229 61.3856 37.2845 61.5003L37.2461 61.8826C37.1694 62.8767 37.2845 63.9089 37.4764 64.9412C37.8602 66.9292 38.6278 68.9172 39.2802 70.9817C39.4337 71.517 39.5873 72.014 39.7408 72.511C39.8943 73.008 40.0862 73.505 40.3165 73.9638C40.7386 74.9196 41.1992 75.8753 41.6981 76.8311C42.6959 78.7045 43.7705 80.5778 44.6149 82.6041C45.4592 84.5921 46.2652 86.5801 46.9944 88.6064C48.4528 92.6207 49.7193 96.7497 50.7171 100.917C50.9858 101.949 51.2161 103.02 51.4463 104.052C51.6766 105.122 51.7917 106.193 51.9069 107.263C52.0604 109.404 52.022 111.583 52.0604 113.686C52.0988 117.93 52.329 122.25 51.6766 126.532L50.6404 132.878C50.295 134.981 50.0263 137.084 49.7193 139.225C49.5658 140.295 49.3355 141.327 49.2971 142.36C49.2587 143.392 49.4122 144.386 50.0263 145.189C50.3333 145.571 50.6787 145.915 51.1009 146.183C51.5231 146.45 51.9836 146.718 52.4442 146.986C53.3653 147.483 54.3631 147.865 55.361 148.209C57.3567 148.859 59.5059 149.165 61.6167 149.28C63.7276 149.394 65.8768 149.241 67.9876 149.012C70.0985 148.744 72.2093 148.362 74.2818 147.865C75.318 147.597 76.3926 147.406 77.4288 147.177C77.9277 147.062 78.4651 146.909 78.964 146.756C79.4629 146.565 79.9235 146.374 80.3072 146.068C80.691 145.762 80.8829 145.342 80.8062 144.883C80.7294 144.424 80.4991 143.965 80.1921 143.545C79.8851 143.124 79.5397 142.704 79.1943 142.36C78.8105 142.016 78.3883 141.786 77.9661 141.786C77.5056 141.786 77.045 142.054 76.5845 142.283C76.1239 142.513 75.625 142.78 75.1261 143.01C74.0899 143.392 73.0536 143.66 71.979 143.927C70.9044 144.157 69.8682 144.348 68.7936 144.462C67.719 144.577 66.6827 144.768 65.6081 144.883C64.5335 144.998 63.4205 145.074 62.3459 144.921C61.2329 144.768 60.1967 144.348 59.2756 143.736L59.0837 143.621L59.1989 143.468C59.4675 143.01 59.9664 142.78 60.3886 142.627C60.8491 142.474 61.2713 142.398 61.7319 142.36C62.6146 142.245 63.4973 142.245 64.38 142.207C64.8022 142.169 65.2243 142.13 65.6465 142.016C66.0687 141.939 66.4908 141.824 66.913 141.672C67.719 141.404 68.5249 141.06 69.2925 140.639C69.6763 140.41 70.0217 140.181 70.3671 139.913C70.6741 139.645 70.9812 139.339 71.0963 138.995C71.2114 138.651 71.0579 138.307 70.7893 138.04C70.5206 137.734 70.1752 137.504 69.7914 137.275C69.0622 136.816 68.2947 136.396 67.5271 135.899C67.1433 135.669 66.7979 135.402 66.4525 135.096C66.1071 134.79 65.8 134.484 65.493 134.178C64.2649 132.917 63.0751 131.617 62.0773 130.126C61.5784 129.361 61.1562 128.596 60.8875 127.717C60.6189 126.838 60.5421 125.844 61.0794 124.964C61.3481 124.544 61.6935 124.238 62.0005 123.97C62.3459 123.665 62.6913 123.397 63.0751 123.168C63.8043 122.671 64.5719 122.212 65.2243 121.677C66.5292 120.568 67.6422 119.115 69.2541 118.236L69.4844 118.121L69.5995 118.35C70.1368 119.306 70.3287 120.377 70.7125 121.332C70.9044 121.791 71.1347 122.212 71.4801 122.632C71.7871 123.053 72.1325 123.435 72.4779 123.817C73.1688 124.582 73.898 125.309 74.6655 126.111C75.0493 126.494 75.3947 126.876 75.7402 127.297L76.738 128.52C79.4245 131.731 82.1878 134.905 85.3732 137.543C86.9852 138.842 88.6738 140.028 90.4776 141.098C91.3603 141.633 92.2814 142.169 93.2025 142.666L94.5842 143.43C95.0831 143.698 95.5437 144.004 96.0042 144.271C96.9253 144.883 97.7696 145.533 98.614 146.259C99.0361 146.642 99.4199 147.062 99.8037 147.559C99.9956 147.827 100.187 148.094 100.303 148.515C100.379 148.706 100.418 148.974 100.379 149.241C100.379 149.509 100.264 149.815 100.072 150.044C99.7269 150.503 99.3048 150.694 98.9977 150.809C98.6523 150.924 98.3453 151 97.9999 151.038C97.3091 151.076 96.695 150.962 96.1193 150.809C94.968 150.503 93.9701 150.006 93.0106 149.509C91.0917 148.515 89.2879 147.292 87.5225 146.183C85.7187 145.036 83.9532 143.851 82.2262 142.627C80.4991 141.404 78.8105 140.142 77.0834 138.881C75.3564 137.581 73.7061 136.09 72.3244 134.331C71.6336 133.452 71.0196 132.496 70.4823 131.502C69.9833 130.47 69.5612 129.399 69.3309 128.252C68.832 125.958 69.1006 123.55 69.8682 121.409C70.6358 119.268 71.8639 117.356 73.2455 115.636C74.6655 113.916 76.2775 112.463 77.9277 111.086C79.578 109.71 81.2667 108.448 82.917 107.149C83.723 106.499 84.5289 105.849 85.2965 105.161C86.0257 104.511 86.7549 103.784 87.4073 103.058C90.0171 100.038 91.7825 96.3291 93.0106 92.4295C93.3177 91.4355 93.5863 90.4797 93.855 89.4857C94.1236 88.4917 94.3155 87.4977 94.5458 86.4272C95.0063 84.3627 95.5436 82.2982 96.1577 80.2337C96.4647 79.2015 96.8102 78.2074 97.1939 77.1752C97.3858 76.6782 97.5777 76.1812 97.7696 75.6842C97.9615 75.1872 98.1534 74.7284 98.3069 74.2314C98.9977 72.3198 99.5734 70.2936 100.226 68.2673C100.533 67.235 100.878 66.241 101.262 65.2088C101.646 64.2148 102.106 63.1825 102.567 62.2267C103.028 61.2709 103.526 60.2769 104.141 59.3211C104.755 58.3654 105.484 57.4096 106.558 56.6449C107.096 56.2626 107.71 55.9568 108.362 55.8039C109.015 55.6127 109.744 55.6127 110.396 55.6892C111.01 55.7656 111.624 55.9186 112.238 56.1479C112.853 56.3773 113.428 56.7596 113.927 57.2949C114.426 57.7919 114.771 58.4418 115.002 59.0918C115.194 59.7417 115.27 60.3916 115.309 60.9651C115.309 62.1885 115.078 63.2972 114.81 64.3677L114.695 64.75C114.656 64.8647 114.618 65.0559 114.541 65.1705C114.426 65.4764 114.311 65.744 114.196 65.9734C113.966 66.4704 113.697 66.9674 113.467 67.4262C112.968 68.382 112.469 69.2613 112.008 70.1789C111.548 71.0964 111.164 72.014 110.934 72.8933C110.818 73.3138 110.78 73.7344 110.818 74.0785C110.857 74.2314 110.857 74.3843 110.934 74.5372C111.01 74.6902 111.087 74.7666 111.087 74.8049C111.125 74.8431 111.125 74.8431 111.202 74.8431C111.279 74.8431 111.394 74.8431 111.586 74.7666C111.931 74.6519 112.315 74.4225 112.699 74.1549C113.467 73.6197 114.196 72.8933 114.925 72.1669C115.616 71.4405 116.307 70.6759 116.997 69.873L118.034 68.6496L119.108 67.4644C121.91 64.3677 124.635 61.1562 127.245 57.9066C127.897 57.1037 128.549 56.2626 129.24 55.4598C129.931 54.6569 130.622 53.8541 131.313 53.0512C132.004 52.2483 132.694 51.4837 133.347 50.6809C133.654 50.2985 133.999 49.8398 134.383 49.4574C134.767 49.0369 135.151 48.6546 135.573 48.2723C135.995 47.89 136.456 47.5459 136.993 47.24C137.53 46.9342 138.106 46.6666 138.835 46.6283C139.18 46.5901 139.564 46.6283 139.91 46.7048C140.255 46.7813 140.6 46.9724 140.907 47.1636C141.215 47.393 141.406 47.5459 141.637 47.7753L141.944 48.0811L142.251 48.4252C142.635 48.9222 142.942 49.4957 143.095 50.1456C143.249 50.7955 143.249 51.4455 143.095 52.0572C142.826 53.2806 142.174 54.2746 141.522 55.1539C140.869 56.0332 140.178 56.8361 139.487 57.639C139.142 58.0213 138.835 58.4418 138.49 58.8241L137.492 60.0858C136.148 61.7297 134.728 63.3354 133.27 64.8647C132.503 65.6676 131.697 66.3557 130.967 67.0821C130.2 67.7703 129.432 68.4967 128.78 69.2613C128.127 70.0259 127.552 70.8288 127.283 71.7081C127.206 71.9375 127.168 72.1669 127.129 72.358C127.091 72.5492 127.129 72.7404 127.129 72.7404L127.091 72.7021C127.091 72.7021 127.129 72.7021 127.206 72.7021C127.36 72.7021 127.552 72.6257 127.782 72.5492C128.626 72.2051 129.509 71.6316 130.315 71.0199C131.121 70.4082 131.888 69.7201 132.656 68.9937C134.153 67.5409 135.534 65.9734 136.801 64.3677C139.334 61.0798 141.483 57.4096 144.17 54.1217C144.822 53.2806 145.551 52.4777 146.319 51.7513L146.895 51.1779C147.086 50.9867 147.317 50.7955 147.547 50.6426C148.008 50.2985 148.545 50.0309 149.044 49.8398C150.118 49.4574 151.308 49.3045 152.46 49.6104C153.035 49.7633 153.573 50.0309 154.033 50.4132C154.494 50.7955 154.877 51.2543 155.184 51.7513C155.491 52.2483 155.645 52.86 155.722 53.4335C155.798 54.007 155.722 54.6187 155.607 55.1539C155.376 56.2626 154.877 57.2949 154.263 58.1742C153.112 59.9711 151.769 61.6533 150.31 63.1825C147.394 66.2793 144.208 69.0319 141.253 72.014C140.524 72.7786 139.833 73.505 139.104 74.3078C138.413 75.0725 137.722 75.8753 137.108 76.7164C136.494 77.5575 135.957 78.4368 135.688 79.3544C135.611 79.5838 135.573 79.8132 135.573 80.0426C135.573 80.1572 135.573 80.2719 135.611 80.3484L135.65 80.5013L135.688 80.6543C135.841 81.113 136.072 81.4571 136.379 81.5336C136.686 81.61 137.146 81.4571 137.569 81.2277C137.991 80.9983 138.374 80.6543 138.758 80.3102C139.526 79.622 140.217 78.8574 140.946 78.0928C142.481 76.6017 144.055 75.2254 145.59 73.7726C146.357 73.0462 147.125 72.358 147.892 71.5934C148.66 70.867 149.312 70.1024 150.003 69.2995C151.347 67.6938 152.651 65.9734 154.417 64.6735C154.647 64.5206 154.877 64.3677 155.108 64.2148C155.338 64.0618 155.607 63.9471 155.875 63.8324C156.413 63.6413 157.027 63.5648 157.641 63.6795C158.216 63.7942 158.754 64.0618 159.214 64.4059C159.675 64.75 160.059 65.2088 160.327 65.6676C160.941 66.6233 161.287 67.6938 161.287 68.8408C161.248 70.0259 160.749 71.0582 160.135 71.9375C158.907 73.7344 157.295 75.1489 155.76 76.6017C154.225 78.0545 152.613 79.4309 151.001 80.8072L148.583 82.8334C147.777 83.5216 146.933 84.1333 146.127 84.8215C145.321 85.5096 144.553 86.1978 143.901 86.9624C143.249 87.7271 142.711 88.6064 142.635 89.5239L142.212 89.1034C143.287 89.0269 144.323 88.4917 145.244 87.88C146.204 87.2683 147.086 86.5037 147.969 85.739C148.852 84.9744 149.735 84.1715 150.656 83.4451C151.5 82.7188 152.344 81.8777 153.227 81.0748C153.688 80.6925 154.148 80.3102 154.647 79.9661C155.146 79.622 155.722 79.3162 156.374 79.125C156.72 79.0485 157.065 78.9721 157.449 79.0103C157.833 79.0485 158.216 79.2015 158.523 79.4309C158.83 79.6602 159.099 79.9279 159.291 80.2337C159.483 80.5396 159.636 80.8072 159.752 81.113C160.02 81.7247 160.135 82.4129 160.135 83.1011C160.135 83.7892 159.982 84.4392 159.752 85.0126C159.291 86.236 158.562 87.2301 157.756 88.1476C156.144 89.9827 154.225 91.4737 152.306 92.8118C150.387 94.1882 148.315 95.3733 146.357 96.5967C144.4 97.8201 142.443 99.0818 140.716 100.535C139.833 101.261 139.065 102.064 138.298 102.867C137.569 103.67 136.839 104.625 136.148 105.543C134.728 107.378 133.232 109.29 131.466 110.934C131.006 111.354 130.584 111.736 130.085 112.119C129.624 112.501 129.087 112.883 128.549 113.189C127.475 113.839 126.4 114.336 125.326 114.833C124.251 115.33 123.215 115.827 122.294 116.362C121.833 116.63 121.373 116.936 120.95 117.28C120.528 117.624 120.183 117.968 119.799 118.427C118.264 120.109 116.997 122.021 115.731 123.97L113.85 126.914C113.236 127.908 112.622 128.864 112.008 129.896C110.818 131.884 109.744 133.911 108.746 136.013C106.75 140.219 105.292 144.654 104.217 149.165L104.102 149.241Z" fill="#2D2825"/>
</g>
<defs>
<clipPath id="clip0_545_43">
<rect width="125" height="115" fill="white" transform="translate(36.209 36)"/>
</clipPath>
</defs>
</svg>
