<svg width="192" height="191" viewBox="0 0 192 191" fill="none" xmlns="http://www.w3.org/2000/svg">
<circle cx="95.709" cy="95.5" r="95.5" fill="#F0F0F0"/>
<g clip-path="url(#clip0_545_44)">
<path opacity="0.7" d="M96.209 107.511C113.33 107.511 127.209 93.5176 127.209 76.2556C127.209 58.9936 113.33 45 96.209 45C79.0882 45 65.209 58.9936 65.209 76.2556C65.209 93.5176 79.0882 107.511 96.209 107.511Z" fill="#49C26D"/>
<path d="M102.078 61.4211C100.69 62.0614 99.1605 62.2748 97.6308 62.1325C96.1367 61.9902 94.6426 61.5278 93.3263 60.852C90.6582 59.4647 88.3814 57.2237 87.0652 54.4848C85.7489 51.7458 85.1441 48.7223 85.0018 45.6988C84.8595 42.6753 85.1085 39.6517 85.4643 36.6638L85.6066 35.5611L86.1402 36.5571C86.6383 37.4819 87.3853 38.3001 88.3103 38.8692L88.666 39.0826C88.7727 39.1538 88.915 39.1893 89.0218 39.2605C89.2708 39.3672 89.5198 39.4739 89.7688 39.5806C90.2669 39.7585 90.8005 39.8652 91.2985 39.9363C92.3302 40.0786 93.3974 40.043 94.3935 39.8296C95.3896 39.6162 96.3501 39.2605 97.3107 38.8692C99.1961 38.0155 100.975 36.8772 102.789 35.6678L104.141 34.7074L104.817 34.2094C105.137 33.996 105.457 33.7826 105.813 33.6047C107.2 32.9289 108.872 32.751 110.402 33.3557C111.185 33.6403 111.967 34.2094 112.465 34.9208C112.964 35.6322 113.213 36.3792 113.355 37.0906C113.497 37.8021 113.497 38.4779 113.462 39.1182C113.462 39.4383 113.426 39.7585 113.39 40.043L113.284 40.9323C112.928 43.3155 112.216 45.5921 111.256 47.7263C110.758 48.7935 110.224 49.825 109.584 50.821C108.979 51.817 108.268 52.7418 107.556 53.6667C106.062 55.4452 104.39 57.0459 102.54 58.3976L101.971 58.8244V58.1486C101.971 57.366 101.971 56.5479 101.829 55.8009C101.686 55.0539 101.402 54.3425 100.868 53.8089C100.619 53.5599 100.299 53.3465 99.9788 53.2398C99.6586 53.1331 99.2673 53.0975 98.9115 53.2042C98.5558 53.2754 98.2356 53.4532 98.0221 53.7378C97.7731 53.9868 97.6308 54.3069 97.6308 54.6271C97.6308 54.9472 97.8087 55.3029 97.951 55.6942C98.0933 56.0855 98.1644 56.619 97.951 57.0815C97.7731 57.5083 97.3818 57.864 96.9549 58.0419C96.528 58.2197 96.03 58.2553 95.5675 58.1486C94.6781 57.8996 93.9666 57.2237 93.5753 56.4412C93.184 55.6586 93.0061 54.8405 92.8283 54.0579L92.1523 50.9277L93.5042 53.8445C93.7176 54.3069 93.8243 54.8405 93.8243 55.3385C93.8243 55.8365 93.682 56.3345 93.5397 56.7969C93.2196 57.7217 92.686 58.5043 92.1879 59.2869C91.6899 60.0694 91.1918 60.8164 90.7649 61.599C90.3736 62.3815 90.0534 63.1996 90.1957 63.9466C90.2313 64.3023 90.4092 64.6581 90.6226 64.9782C90.8361 65.2983 91.1207 65.5473 91.4764 65.7607C91.6543 65.8675 91.8322 65.9386 92.01 66.0097C92.1879 66.0809 92.4014 66.1165 92.6148 66.1876C92.8282 66.2587 93.0417 66.2943 93.2551 66.3655L93.8955 66.5077C94.7493 66.65 95.6386 66.7567 96.528 66.7567C97.4174 66.7567 98.3068 66.7212 99.1605 66.6145C99.5874 66.5789 100.05 66.4722 100.477 66.401C100.904 66.2943 101.331 66.2232 101.757 66.0809C102.611 65.8319 103.465 65.5118 104.248 65.1205L104.852 64.8359L105.422 64.5158C105.635 64.4091 105.813 64.2668 105.991 64.1601L106.275 63.9822L106.418 63.8755L106.489 63.8044C106.596 63.6976 106.631 63.5909 106.596 63.4842C106.596 63.3419 106.489 63.2352 106.418 63.1641C106.311 63.0929 106.204 63.0574 106.062 63.0929C105.92 63.1285 105.706 63.2352 105.564 63.3419C104.924 63.7332 104.781 64.6225 105.03 65.3695C105.137 65.7607 105.351 66.1165 105.635 66.4366C105.884 66.7567 106.204 67.0057 106.56 67.2547C107.272 67.7171 108.125 68.0017 108.979 68.2863C109.406 68.4286 109.833 68.6064 110.295 68.7487C110.722 68.891 111.149 69.0688 111.576 69.2467C118.442 72.0212 124.525 76.681 129.008 82.6213C131.249 85.5737 133.099 88.8818 134.415 92.3677C135.091 94.1107 135.625 95.8893 136.051 97.7034C136.514 99.5175 136.763 101.367 136.941 103.217C137.297 106.952 137.119 110.722 136.443 114.386C135.767 118.085 134.522 121.536 133.739 125.022C133.348 126.765 133.063 128.508 133.063 130.286C133.028 132.029 133.277 133.772 133.846 135.408C134.13 136.227 134.486 136.974 134.949 137.685C135.411 138.396 135.98 139.072 136.585 139.748C137.759 141.1 139.111 142.416 140.107 144.088C140.605 144.906 140.996 145.866 141.139 146.898C141.174 147.147 141.21 147.396 141.21 147.645C141.21 147.894 141.21 148.143 141.174 148.427C141.103 148.925 140.996 149.423 140.818 149.921C140.463 150.882 139.894 151.736 139.182 152.411C138.471 153.087 137.652 153.656 136.799 154.083C135.055 154.937 133.17 155.293 131.32 155.47C129.47 155.648 127.656 155.755 125.806 155.755C122.106 155.791 118.442 155.47 114.813 154.795C111.185 154.154 107.627 153.158 104.212 151.842L104.532 151.807C101.722 153.692 98.5558 155.008 95.2829 155.826C94.4647 156.004 93.6465 156.217 92.8283 156.36C92.4014 156.431 92.01 156.502 91.5831 156.573L90.338 156.751C89.5198 156.858 88.666 156.929 87.8478 157C86.994 157.036 86.1758 157.107 85.322 157.142C81.978 157.249 78.634 157.142 75.2899 156.964L65.2935 156.431L60.313 156.182C58.6766 156.111 56.9334 156.111 55.1191 155.648C54.2297 155.435 53.3048 155.079 52.451 154.474C52.0241 154.154 51.6328 153.799 51.3126 153.336C50.9924 152.909 50.7078 152.411 50.53 151.878C50.1742 150.811 50.1742 149.672 50.4232 148.676C50.6723 147.68 51.1347 146.791 51.6684 145.973C52.202 145.19 52.8423 144.479 53.5182 143.839C54.2297 143.163 54.9412 142.701 55.6527 142.203C57.0401 141.242 58.3208 140.317 59.2458 139.286C59.7082 138.788 60.064 138.254 60.313 137.685C60.5265 137.116 60.6688 136.476 60.7399 135.8C60.7755 135.088 60.7755 134.341 60.7043 133.559C60.6688 132.776 60.562 131.923 60.5265 131.104C60.2419 127.796 60.0284 124.453 59.7794 121.145L59.4236 116.165L59.1035 111.185C58.89 107.841 58.7833 104.462 58.9256 101.083C59.0323 97.7034 59.4236 94.2886 60.2063 90.9449C60.9889 87.6013 62.1629 84.3643 63.8349 81.3764C65.5069 78.3884 67.677 75.6494 70.3806 73.5152C73.0843 71.3809 76.2505 69.887 79.5945 69.1756C82.9385 68.4641 86.4604 68.642 89.6621 69.9225L90.4092 70.2071L89.6977 70.5628C87.2075 71.8078 85.1085 73.7998 83.65 76.2186C82.227 78.6018 81.4088 81.4119 81.4799 84.222L81.0175 84.1153C82.0847 82.4435 83.1875 80.7361 84.3615 79.1354C85.571 77.5347 86.8873 75.9696 88.3814 74.6535C89.9111 73.3018 91.6187 72.1991 93.5042 71.4877C95.3896 70.7407 97.453 70.385 99.4807 70.634C101.508 70.883 103.429 71.7367 105.066 72.9105C106.702 74.1199 108.09 75.6139 109.228 77.3213C110.331 78.9931 111.22 80.8428 111.932 82.7281C112.643 84.6133 113.248 86.5341 113.853 88.4194V88.455L113.177 88.4194C114.137 86.214 114.315 83.6885 113.817 81.3408C113.284 78.9575 112.039 76.7166 110.189 75.1159L110.331 74.9736C112.288 76.5387 113.639 78.8153 114.28 81.2341C114.92 83.6529 114.813 86.3207 113.853 88.704L113.462 89.6644L113.177 88.6684V88.6328C112.643 86.712 112.074 84.7912 111.398 82.9415C110.722 81.0918 109.869 79.2777 108.801 77.6058C107.734 75.9696 106.418 74.44 104.817 73.3018C103.252 72.1279 101.402 71.3098 99.4451 71.0608C97.4885 70.8118 95.4963 71.1675 93.682 71.8789C91.8322 72.5904 90.1601 73.6931 88.666 75.0092C87.1719 76.3253 85.8912 77.8548 84.7172 79.4555C83.5433 81.0562 82.476 82.7636 81.4088 84.4355L80.9819 85.1113L80.9463 84.3287C80.8396 81.4119 81.6222 78.4951 83.0808 76.0052C84.5394 73.5152 86.7094 71.3809 89.3064 70.0293L89.3419 70.6695C86.2825 69.5313 82.9029 69.4601 79.7368 70.2071C76.5706 70.9541 73.6179 72.5192 71.1633 74.6179C68.7442 76.7521 66.8232 79.42 65.4002 82.3012C63.9772 85.1824 63.0167 88.3127 62.4475 91.514C61.8783 94.6799 61.7004 97.9524 61.7004 101.225C61.736 104.497 61.9494 107.77 62.234 111.078L62.6965 116.022L63.1234 121.002C63.408 124.31 63.6926 127.618 63.9416 130.962C64.0128 131.78 64.0839 132.598 64.1195 133.488C64.1906 134.341 64.1906 135.266 64.0839 136.227C64.0128 137.187 63.7637 138.183 63.3369 139.179C62.91 140.139 62.3052 140.993 61.6293 141.705C60.2774 143.127 58.7121 144.017 57.3603 144.906C56.6844 145.368 56.0085 145.795 55.4749 146.222C54.9057 146.684 54.4076 147.218 53.9807 147.752C53.5538 148.321 53.2336 148.925 53.0202 149.53C52.8423 150.135 52.8068 150.704 52.949 151.238C53.0202 151.522 53.1269 151.771 53.3048 152.02C53.4471 152.269 53.6605 152.482 53.9096 152.66C54.372 153.052 55.0124 153.372 55.7239 153.585C57.1469 154.012 58.7477 154.154 60.4197 154.332L65.4002 154.83L75.3611 155.755C78.6695 156.04 81.978 156.253 85.2864 156.253C88.5949 156.289 91.9033 155.968 95.105 155.257C95.4963 155.186 95.8877 155.044 96.3146 154.937C96.7059 154.83 97.0972 154.723 97.4885 154.581C98.2712 154.297 99.0538 154.048 99.8009 153.727C101.331 153.123 102.754 152.269 104.141 151.38L104.283 151.273L104.461 151.344C107.876 152.625 111.363 153.585 114.956 154.19C118.549 154.795 122.177 155.044 125.806 154.972C127.62 154.937 129.435 154.795 131.213 154.581C132.992 154.368 134.735 153.976 136.265 153.194C137.012 152.803 137.723 152.269 138.328 151.7C138.897 151.095 139.36 150.384 139.645 149.637C139.787 149.246 139.858 148.854 139.894 148.463C139.894 148.25 139.894 148.072 139.894 147.858C139.894 147.645 139.858 147.467 139.822 147.254C139.68 146.471 139.36 145.688 138.897 144.977C138.008 143.519 136.692 142.274 135.447 140.922C134.806 140.246 134.202 139.535 133.668 138.717C133.134 137.898 132.672 137.045 132.316 136.12C131.64 134.306 131.356 132.349 131.356 130.464C131.356 128.543 131.605 126.658 131.996 124.844C132.387 123.03 132.885 121.251 133.383 119.473C133.881 117.73 134.344 115.987 134.628 114.208C134.949 112.465 135.162 110.687 135.233 108.908C135.304 107.13 135.304 105.351 135.127 103.573C134.486 96.4584 132.032 89.4865 127.834 83.6529C123.636 77.8193 117.873 73.0883 111.22 70.2427C110.793 70.0648 110.402 69.887 109.975 69.7447C109.548 69.5668 109.121 69.4245 108.695 69.2467C107.841 68.9266 106.951 68.6064 106.098 68.0729C105.706 67.8239 105.279 67.4682 104.995 67.0769C104.675 66.6856 104.426 66.2232 104.283 65.7252C104.141 65.2272 104.105 64.6936 104.212 64.1601C104.248 64.0178 104.283 63.9111 104.319 63.7688C104.39 63.6265 104.461 63.5198 104.532 63.4131C104.71 63.1996 104.888 62.9862 105.137 62.8439C105.386 62.7017 105.6 62.5949 105.884 62.5238C106.204 62.4527 106.56 62.5238 106.845 62.7017C107.094 62.9151 107.272 63.1997 107.307 63.5198C107.343 63.8399 107.236 64.1956 106.987 64.4446C106.916 64.4802 106.88 64.5513 106.809 64.5869L106.667 64.6936L106.382 64.907C106.204 65.0493 105.991 65.1916 105.813 65.2983L105.208 65.654L104.603 65.9742C103.785 66.401 102.931 66.7923 102.042 67.1124C101.615 67.2903 101.153 67.397 100.69 67.5393C100.228 67.646 99.7653 67.7527 99.3028 67.8239C97.453 68.144 95.5319 68.1084 93.682 67.7527L93.0061 67.6104C92.7927 67.5749 92.5437 67.5037 92.3302 67.4326C92.1168 67.3614 91.8677 67.3259 91.6187 67.2192C91.3697 67.1124 91.1562 67.0057 90.9072 66.8634C90.0178 66.3299 89.3419 65.3695 89.1996 64.3023C89.1285 63.7688 89.1996 63.2352 89.3775 62.7372C89.5198 62.2392 89.7333 61.8124 89.9823 61.3855C90.4447 60.5674 90.9784 59.8204 91.512 59.0734C92.01 58.3264 92.5081 57.5795 92.8283 56.7613C93.1484 55.9788 93.2196 55.1251 92.8994 54.3781L93.5753 54.1647C93.7176 54.9472 93.8955 55.7298 94.2157 56.37C94.3935 56.6902 94.607 57.0103 94.856 57.2593C95.105 57.5083 95.4252 57.6862 95.7454 57.7929C96.3857 57.9707 97.1684 57.6862 97.4174 57.0815C97.5597 56.7969 97.5241 56.4768 97.4174 56.121C97.3107 55.7653 97.1328 55.3741 97.0972 54.8761C97.0972 54.3781 97.3107 53.9157 97.6308 53.5955C97.951 53.2754 98.3423 53.0264 98.8048 52.9197C99.2317 52.813 99.6942 52.8485 100.121 52.9908C100.548 53.1331 100.939 53.3821 101.224 53.7022C101.864 54.3069 102.22 55.1606 102.398 55.9788C102.576 56.7969 102.611 57.615 102.647 58.4332L102.078 58.1486C103.821 56.7258 105.351 55.0895 106.596 53.2754C107.841 51.4257 108.801 49.4337 109.477 47.3706C110.153 45.2719 110.544 43.1377 110.616 41.0034C110.616 40.4699 110.651 39.9007 110.616 39.4383C110.58 38.9403 110.544 38.4779 110.402 38.0866C110.295 37.6953 110.118 37.3752 109.94 37.1618C109.762 36.9839 109.548 36.8416 109.264 36.7705C108.659 36.5927 107.912 36.6638 107.272 37.0195C107.094 37.0906 106.951 37.1974 106.809 37.3041L106.133 37.8376C105.671 38.1933 105.208 38.549 104.71 38.8692C102.789 40.2209 100.655 41.4659 98.2356 42.1061C93.433 43.4934 87.5988 41.6437 85.4643 37.2685L86.1402 37.1618C85.7133 40.1142 85.3931 43.1021 85.4643 46.0901C85.5354 49.078 86.0335 52.066 87.3142 54.7694C88.5949 57.4727 90.7649 59.7137 93.3974 61.1365C94.7137 61.8124 96.1723 62.3104 97.6664 62.4171C99.1605 62.5594 100.69 62.3104 102.042 61.7057L102.078 61.4211Z" fill="#2D2825"/>
</g>
<defs>
<clipPath id="clip0_545_44">
<rect width="91" height="124" fill="white" transform="translate(50.209 33)"/>
</clipPath>
</defs>
</svg>
