<svg width="191" height="191" viewBox="0 0 191 191" fill="none" xmlns="http://www.w3.org/2000/svg">
<circle cx="95.5" cy="95.5" r="95.5" fill="#F0F0F0"/>
<path opacity="0.7" d="M96 100.511C113.121 100.511 127 86.5176 127 69.2556C127 51.9936 113.121 38 96 38C78.8792 38 65 51.9936 65 69.2556C65 86.5176 78.8792 100.511 96 100.511Z" fill="#49C26D"/>
<path d="M124.95 152.483C124.463 152.483 124.002 152.225 123.669 151.941C123.336 151.631 123.08 151.295 122.849 150.934C122.388 150.21 122.055 149.409 121.773 148.635C121.21 147.059 120.8 145.406 120.441 143.778C119.749 140.498 119.314 137.166 118.981 133.859C118.648 130.527 118.468 127.195 118.366 123.837C118.315 122.158 118.315 120.479 118.366 118.825C118.417 117.146 118.52 115.467 118.725 113.814C118.827 112.988 118.955 112.135 119.16 111.334C119.263 110.921 119.391 110.508 119.57 110.12C119.647 109.914 119.749 109.733 119.878 109.526C120.006 109.345 120.159 109.165 120.39 109.01C120.518 108.958 120.646 108.906 120.774 108.88C120.8 108.88 120.851 108.88 120.877 108.88C120.902 108.88 120.954 108.88 121.005 108.906C121.107 108.932 121.184 108.984 121.235 109.035C121.44 109.242 121.517 109.449 121.594 109.681C121.748 110.095 121.825 110.508 121.901 110.921C122.055 111.748 122.158 112.6 122.235 113.427C122.568 116.759 122.67 120.117 122.721 123.449C122.773 126.807 122.721 130.139 122.593 133.498C122.465 136.856 122.26 140.188 121.825 143.52C121.773 143.933 121.697 144.347 121.645 144.76C121.62 144.967 121.568 145.173 121.543 145.38C121.492 145.612 121.44 145.845 121.338 146.051C120.979 146.93 120.364 147.627 119.673 148.195C118.981 148.764 118.238 149.177 117.444 149.564C116.675 149.926 115.881 150.236 115.061 150.494C111.833 151.528 108.528 152.07 105.197 152.432C101.867 152.793 98.5362 152.948 95.2056 153C93.5403 153.026 91.875 153.026 90.2098 152.974C88.5445 152.948 86.8792 152.871 85.1883 152.768C81.8321 152.535 78.5015 152.251 75.1197 151.502C74.2742 151.295 73.4288 151.088 72.5577 150.753C72.1221 150.572 71.6866 150.391 71.1998 150.107C70.9693 149.952 70.7131 149.797 70.4569 149.564C70.4056 149.513 70.3288 149.435 70.2775 149.358C70.2007 149.28 70.1494 149.203 70.0982 149.125L69.9957 148.996L69.9188 148.867L69.8164 148.712C69.3296 147.86 68.9709 147.033 68.6635 146.181C68.356 145.328 68.0998 144.476 67.8949 143.649C67.0494 140.265 66.5883 136.881 66.3064 133.498C66.0246 130.114 65.8965 126.73 65.9221 123.346C66.0246 119.91 66.2296 116.526 66.5883 113.168C66.7676 111.489 66.9982 109.81 67.2544 108.131C67.5362 106.452 67.818 104.773 68.2279 103.094C68.3304 102.681 68.4329 102.242 68.5866 101.829C68.7147 101.389 68.8684 100.976 69.099 100.485C69.2271 100.253 69.3296 99.9946 69.6114 99.6846C69.7651 99.5296 69.9445 99.323 70.3288 99.1938C70.4312 99.168 70.5337 99.1422 70.6362 99.1422C70.7643 99.1422 70.8155 99.1422 70.8924 99.1422C71.0205 99.168 71.1742 99.1938 71.2767 99.2197C71.7635 99.4005 71.994 99.6588 72.199 99.8913C72.404 100.124 72.5321 100.33 72.6602 100.563C73.1469 101.415 73.4288 102.216 73.7362 103.017C74.0436 103.818 74.2998 104.593 74.5817 105.393C75.1453 106.943 75.7089 108.493 76.4519 109.888C76.8106 110.585 77.2205 111.231 77.7073 111.774C78.194 112.29 78.7321 112.652 79.2701 112.703C79.5519 112.729 79.8081 112.703 80.1155 112.6C80.3974 112.497 80.7048 112.316 80.9866 112.109C81.5759 111.67 82.1395 111.102 82.7031 110.508C83.8048 109.32 84.9321 108.002 86.2131 106.866C87.494 105.729 89.0312 104.722 90.7734 104.231C91.6445 103.973 92.5412 103.869 93.4122 103.869C94.2833 103.869 95.1288 103.921 95.9998 104.05C97.6907 104.283 99.356 104.799 100.919 105.419C102.482 106.039 103.993 106.814 105.479 107.356C105.863 107.486 106.222 107.589 106.581 107.666C106.76 107.692 106.94 107.718 107.119 107.744C107.196 107.744 107.298 107.744 107.375 107.744C107.452 107.744 107.529 107.744 107.58 107.718C108.144 107.615 108.733 107.098 109.22 106.478C109.706 105.858 110.168 105.161 110.654 104.489C111.141 103.792 111.654 103.094 112.345 102.474C112.678 102.164 113.088 101.906 113.549 101.725C114.011 101.544 114.549 101.519 115.035 101.596C115.522 101.699 115.958 101.906 116.342 102.139C116.726 102.371 117.085 102.655 117.392 102.914C117.725 103.198 118.033 103.482 118.34 103.74C118.648 103.998 118.955 104.283 119.237 104.412C119.314 104.438 119.365 104.463 119.416 104.463C119.442 104.463 119.442 104.463 119.442 104.463C119.442 104.463 119.468 104.463 119.493 104.463H119.621C119.801 104.463 119.954 104.412 120.082 104.36C120.364 104.257 120.595 104.05 120.723 103.766C120.877 103.482 120.928 103.12 120.954 102.733C120.979 102.345 120.954 101.958 120.902 101.57C120.8 100.795 120.595 99.9946 120.313 99.2455C120.031 98.4706 119.698 97.7473 119.314 97.0499C119.109 96.6882 118.904 96.3524 118.648 96.0424C118.417 95.7325 118.135 95.4483 117.879 95.2675C117.854 95.2417 117.802 95.2159 117.777 95.2159L117.725 95.19L117.649 95.1642C117.572 95.1384 117.469 95.1125 117.367 95.0867C117.187 95.035 116.982 94.9834 116.778 94.9575C116.393 94.88 115.983 94.8284 115.573 94.7509C114.754 94.6476 113.934 94.5442 113.114 94.4409C111.474 94.2601 109.809 94.1051 108.169 93.8726C107.349 93.7693 106.53 93.6402 105.684 93.4593C105.274 93.356 104.864 93.2785 104.429 93.0977C104.019 92.9169 103.66 92.6844 103.301 92.4519C101.892 91.4962 100.688 90.0755 100.201 88.3964C100.15 88.1898 100.099 87.9831 100.048 87.7507C99.9965 87.544 99.9709 87.2857 99.9965 87.0791C99.9965 86.6141 100.099 86.2008 100.201 85.7875C100.406 84.9609 100.714 84.1601 101.021 83.3852C101.175 82.9977 101.303 82.6103 101.431 82.2228C101.559 81.8353 101.636 81.4479 101.713 81.0346C101.867 80.2338 101.944 79.4072 101.944 78.5806C101.969 76.9274 101.713 75.3001 101.354 73.6727C100.97 72.0712 100.483 70.4697 100.022 68.8681C99.561 67.2666 99.1255 65.6393 98.8436 63.9602C98.5618 62.307 98.4081 60.628 98.28 58.949C98.0238 55.6168 97.8957 52.2588 97.3321 49.004L97.6651 49.2107C97.5114 49.2365 97.3577 49.3657 97.204 49.4948C97.0502 49.624 96.9221 49.779 96.794 49.934C96.5378 50.2439 96.3073 50.6056 96.0767 50.9414C95.6412 51.6646 95.2825 52.4137 94.9238 53.1628C94.2064 54.6869 93.5916 56.2626 93.0279 57.8383C92.4387 59.414 91.9007 61.0155 91.337 62.5912C90.799 64.1669 90.2098 65.7684 89.723 67.3183C88.7238 70.3922 88.1089 73.6211 88.237 76.8241C88.2883 78.4256 88.4932 80.0013 88.9288 81.4995C89.3387 82.9977 89.9792 84.4443 90.799 85.71C91.2089 86.33 91.6957 86.9241 92.2081 87.389C92.4643 87.6215 92.7205 87.8282 92.9767 87.9573C93.0792 88.009 93.2073 88.0606 93.2329 88.0606C93.2585 88.0606 93.2585 88.0606 93.2585 88.0606C93.2585 88.0606 93.2841 88.0606 93.2073 88.0606C93.1048 88.0606 92.9767 88.0865 92.8742 88.1381C92.7717 88.1898 92.7205 88.2415 92.6693 88.2673C92.5924 88.3448 92.5924 88.3706 92.5924 88.3706C92.5924 88.3706 92.618 88.319 92.6436 88.2673C92.6949 88.164 92.7205 88.009 92.7461 87.8282C92.823 87.4924 92.8486 87.1049 92.8998 86.7174C92.9767 85.9167 93.0023 85.0901 93.0023 84.2635C93.0279 82.5845 93.0023 80.9054 93.0536 79.1747C93.0792 78.2965 93.1048 77.4441 93.2585 76.5141C93.2841 76.2817 93.3354 76.0234 93.4122 75.765C93.4891 75.5067 93.5659 75.2226 93.7965 74.8351C93.9246 74.6543 94.104 74.396 94.4883 74.1893C94.6676 74.086 94.8982 74.0344 95.1288 74.0344C95.18 74.0344 95.2312 74.0344 95.3081 74.0344C95.385 74.0344 95.4618 74.0602 95.5387 74.086C95.6155 74.1119 95.6668 74.1377 95.7436 74.1635C95.7949 74.1893 95.8717 74.2152 95.923 74.241C95.9742 74.2668 96.0255 74.2927 96.0511 74.3443C96.1023 74.3702 96.1279 74.396 96.1536 74.4218C96.1792 74.4477 96.2304 74.4735 96.256 74.4993L96.3329 74.5768C96.3841 74.6285 96.4097 74.6801 96.4354 74.7318C96.461 74.7835 96.4866 74.8351 96.5122 74.861C96.6147 75.0418 96.6659 75.1709 96.7172 75.3001C96.9221 75.8167 96.999 76.2558 97.1015 76.695C97.204 77.1341 97.2808 77.5732 97.3321 77.9865L97.7164 80.4921C97.8445 81.3187 97.9726 82.1453 98.1519 82.9461C98.3056 83.7468 98.5106 84.5476 98.7668 85.2192C98.8436 85.4 98.8949 85.555 98.9717 85.6842C98.9974 85.71 98.9974 85.7617 99.023 85.7875L99.0486 85.8392L98.9974 85.7617C98.9205 85.6842 98.9205 85.71 98.9461 85.71C99.023 85.7358 99.1767 85.8133 99.3304 85.8392C99.5098 85.8908 99.6891 85.9167 99.8684 85.9683C100.637 86.1233 101.457 86.2008 102.277 86.2783C103.916 86.4333 105.607 86.5624 107.273 86.7174C108.963 86.8724 110.629 87.0274 112.32 87.2599C114.011 87.5182 115.701 87.8023 117.392 88.3706C118.238 88.6806 119.083 89.0164 119.903 89.6363C120.313 89.9463 120.697 90.3596 120.979 90.8762C121.107 91.1345 121.21 91.4445 121.287 91.7287C121.338 92.0386 121.338 92.3486 121.312 92.6069C121.261 93.1752 121.056 93.7435 120.774 94.2084C120.492 94.6734 120.159 95.0609 119.801 95.3967C119.083 96.0424 118.289 96.5074 117.469 96.9207C115.855 97.6956 114.216 98.2123 112.55 98.6514C110.885 99.0905 109.22 99.4263 107.554 99.6846C104.198 100.227 100.842 100.589 97.4345 100.744C96.5891 100.795 95.7436 100.821 94.8726 100.821C94.0015 100.821 93.156 100.795 92.3106 100.77C90.6197 100.692 88.9288 100.537 87.2379 100.33C83.8817 99.9171 80.5255 99.3747 77.1949 98.4964C76.375 98.2639 75.5296 98.0056 74.7098 97.7215C73.8899 97.4373 73.0701 97.1015 72.2502 96.6624C71.8403 96.4299 71.4304 96.1974 71.0461 95.8875C70.6618 95.5775 70.2519 95.19 69.9188 94.6217C69.7651 94.3376 69.637 94.0018 69.5858 93.6402C69.5858 93.5368 69.5602 93.4593 69.5602 93.356V93.1235C69.5602 92.9685 69.5858 92.8136 69.6114 92.6586C69.7139 92.0386 70.0469 91.4445 70.4312 91.0054C70.8412 90.5663 71.2767 90.2563 71.7379 89.998C72.199 89.7655 72.6345 89.5847 73.0957 89.4297C73.9924 89.1455 74.8635 88.9647 75.7345 88.8614C77.4767 88.6289 79.1932 88.5514 80.8841 88.5256C81.5502 88.4998 82.0883 89.0422 82.1139 89.688C82.1395 90.3596 81.6015 90.9021 80.961 90.9279H80.9354C79.2701 90.9279 77.6304 90.9537 76.042 91.1604C75.2478 91.2637 74.4792 91.3929 73.7618 91.6253C73.0701 91.832 72.404 92.1678 72.0709 92.5294C71.8916 92.7102 71.8147 92.8911 71.7635 93.0977C71.7635 93.1494 71.7379 93.201 71.7379 93.2785V93.356C71.7379 93.356 71.7379 93.3818 71.7379 93.4077C71.7379 93.4593 71.7635 93.5368 71.8147 93.6143C71.8916 93.7951 72.0965 94.0276 72.3527 94.2343C72.6089 94.4409 72.9164 94.6476 73.2494 94.8284C74.5817 95.5517 76.1445 96.0941 77.7073 96.5332C80.8585 97.4115 84.1378 97.9798 87.4428 98.3931C89.0825 98.5997 90.7478 98.7547 92.3874 98.858C93.2073 98.9097 94.0271 98.9355 94.8469 98.9355C95.6668 98.9355 96.4866 98.9097 97.3321 98.858C100.637 98.703 103.968 98.3672 107.221 97.8248C108.861 97.5665 110.475 97.2307 112.063 96.8174C113.652 96.4041 115.215 95.9133 116.624 95.2159C117.316 94.8542 117.982 94.4668 118.52 94.0018C119.058 93.5368 119.391 92.9944 119.416 92.4519C119.442 92.1678 119.391 91.9611 119.288 91.7545C119.186 91.5478 118.981 91.3154 118.725 91.1087C118.212 90.6954 117.495 90.3854 116.752 90.1271C115.266 89.6105 113.626 89.3264 112.012 89.1197C110.373 88.8872 108.733 88.7581 107.068 88.6031C105.402 88.4739 103.737 88.3706 102.046 88.2415C101.201 88.164 100.355 88.0865 99.4585 87.9315C99.2279 87.8798 98.9974 87.854 98.7668 87.7765C98.5362 87.7248 98.28 87.6473 97.9726 87.4924C97.8188 87.4149 97.6395 87.3374 97.4089 87.0791C97.3577 87.0274 97.2808 86.9241 97.2552 86.8724L97.204 86.7949C97.1783 86.7433 97.1271 86.6658 97.1015 86.6141C96.9734 86.3816 96.8709 86.1491 96.794 85.9425C96.4354 85.0642 96.2304 84.186 96.0255 83.3336C95.8461 82.4811 95.6668 81.6287 95.5387 80.8021L95.1031 78.3223C95.0263 77.909 94.9494 77.5216 94.8469 77.1341C94.7701 76.7466 94.642 76.3592 94.5395 76.1008C94.5139 76.0492 94.4883 75.9975 94.4883 75.9717C94.4883 75.9459 94.4626 75.9975 94.6676 76.1267C94.6932 76.1267 94.7188 76.1525 94.7701 76.1783C94.8213 76.2042 94.8469 76.2042 94.8982 76.23C94.9494 76.2558 95.0007 76.2558 95.0519 76.2558C95.1031 76.2558 95.1031 76.2558 95.1544 76.2558C95.2569 76.2558 95.385 76.23 95.4874 76.1783C95.6924 76.075 95.718 75.9975 95.7436 75.9717C95.7436 75.9459 95.6924 76.075 95.6668 76.23C95.6412 76.385 95.6155 76.54 95.5899 76.7208C95.4874 77.4699 95.4874 78.2965 95.4618 79.0973C95.4618 80.7504 95.5131 82.4295 95.5131 84.1601C95.5131 85.0126 95.5131 85.8908 95.4362 86.7691C95.4106 87.2082 95.3593 87.6732 95.2825 88.164C95.2312 88.4223 95.18 88.6806 95.0775 88.9647C95.0263 89.1197 94.975 89.2747 94.8726 89.4555C94.7701 89.6363 94.6676 89.843 94.437 90.0496C94.3089 90.153 94.1552 90.2821 93.9759 90.3596C93.7965 90.4629 93.5659 90.5146 93.361 90.5146C93.2329 90.5146 93.2073 90.5146 93.1304 90.5146C93.0792 90.5146 93.0023 90.5146 92.9767 90.5146C92.8742 90.5146 92.7717 90.4888 92.6949 90.4629C92.3362 90.3854 92.0544 90.2563 91.7982 90.1271C91.2858 89.8688 90.8759 89.5588 90.5172 89.223C89.7742 88.5773 89.185 87.8282 88.6469 87.0791C87.5965 85.5292 86.8792 83.8502 86.3924 82.0937C85.9056 80.3371 85.6494 78.5548 85.5982 76.7725C85.5213 73.1819 86.2131 69.6689 87.3403 66.3625C88.5188 63.1078 90.0304 60.0597 91.6957 57.0892C92.1056 56.3401 92.5412 55.6168 92.9767 54.8677C93.4122 54.1444 93.8478 53.3953 94.3089 52.6979C94.7701 51.9746 95.2312 51.2772 95.7436 50.5797C95.9998 50.2439 96.256 49.9081 96.5378 49.5723C96.6659 49.4173 96.8197 49.2365 96.999 49.0815C97.1527 48.9265 97.3321 48.7716 97.5883 48.6682C97.7164 48.6166 97.8445 48.6682 97.8957 48.7974C97.8957 48.8232 97.8957 48.8232 97.9213 48.8491C98.485 52.1813 98.5874 55.5393 98.8436 58.8457C98.9717 60.4989 99.1511 62.1521 99.4329 63.8053C99.7147 65.4326 100.15 67.0341 100.611 68.6357C101.073 70.2372 101.585 71.8387 101.969 73.4661C102.354 75.0934 102.61 76.7983 102.61 78.5031C102.61 79.3556 102.533 80.208 102.379 81.0346C102.328 81.2412 102.302 81.4479 102.251 81.6545C102.2 81.8612 102.149 82.0678 102.072 82.2745C101.944 82.6878 101.79 83.0752 101.662 83.4627C101.38 84.2376 101.073 85.0126 100.893 85.8133C100.791 86.2008 100.714 86.6141 100.714 86.9757C100.714 87.1566 100.74 87.3374 100.765 87.544C100.791 87.7507 100.842 87.9315 100.893 88.1123C101.354 89.6363 102.456 90.9279 103.763 91.8061C103.916 91.9095 104.096 92.0128 104.275 92.1161C104.454 92.1936 104.634 92.3228 104.787 92.3744C105.12 92.5294 105.53 92.6069 105.915 92.6844C106.709 92.8394 107.529 92.9685 108.349 93.0719C109.988 93.2785 111.628 93.4077 113.293 93.5885C114.113 93.666 114.959 93.7435 115.778 93.8726C116.188 93.9243 116.598 93.976 117.034 94.0535C117.239 94.0793 117.444 94.1309 117.674 94.1826C117.777 94.2084 117.879 94.2343 118.007 94.2859L118.084 94.3118L118.187 94.3634C118.263 94.3893 118.315 94.4151 118.366 94.4668C118.801 94.7251 119.109 95.0867 119.365 95.4225C119.647 95.7583 119.878 96.1458 120.082 96.5074C120.518 97.2565 120.877 98.0314 121.184 98.8322C121.492 99.633 121.722 100.46 121.85 101.338C121.901 101.777 121.953 102.216 121.927 102.681C121.901 103.146 121.825 103.611 121.62 104.076C121.415 104.541 120.979 104.954 120.492 105.135C120.236 105.238 120.006 105.29 119.749 105.29H119.57C119.519 105.29 119.416 105.29 119.34 105.264C119.186 105.238 119.058 105.187 118.93 105.135C118.468 104.903 118.135 104.618 117.802 104.334C117.469 104.05 117.162 103.792 116.854 103.533C116.24 103.017 115.573 102.578 114.907 102.449C114.267 102.319 113.626 102.604 113.063 103.12C112.499 103.611 112.038 104.283 111.577 104.954C111.116 105.626 110.68 106.349 110.142 107.046C109.86 107.382 109.578 107.744 109.194 108.028C108.835 108.338 108.374 108.596 107.836 108.7C107.708 108.726 107.554 108.751 107.426 108.751C107.298 108.751 107.196 108.751 107.068 108.751C106.837 108.726 106.606 108.7 106.376 108.674C105.915 108.596 105.505 108.467 105.095 108.338C104.275 108.054 103.506 107.718 102.738 107.382C101.969 107.046 101.226 106.737 100.458 106.452C98.9461 105.858 97.3833 105.445 95.7949 105.238C95.0007 105.135 94.2064 105.083 93.4122 105.109C92.6436 105.135 91.875 105.238 91.1577 105.471C89.6974 105.91 88.3907 106.788 87.2122 107.873C86.0337 108.958 85.0089 110.198 83.8817 111.464C83.318 112.084 82.7288 112.729 81.9858 113.298C81.6271 113.582 81.1916 113.84 80.7048 114.047C80.218 114.253 79.6544 114.331 79.1164 114.279C78.5783 114.228 78.0403 114.047 77.5792 113.788C77.118 113.53 76.7593 113.194 76.4263 112.858C75.7602 112.161 75.2734 111.412 74.8635 110.637C74.018 109.087 73.4031 107.511 72.8139 105.936C72.5064 105.161 72.2246 104.36 71.9172 103.611C71.7635 103.223 71.6098 102.862 71.456 102.5C71.3023 102.139 71.123 101.803 70.9436 101.519C70.8412 101.389 70.7643 101.26 70.6874 101.157C70.6106 101.08 70.5337 101.054 70.6362 101.105C70.6618 101.105 70.6874 101.131 70.7131 101.131C70.7387 101.131 70.7131 101.131 70.8155 101.131C70.8668 101.131 70.9436 101.105 70.9693 101.105C71.1742 101.028 71.1998 100.976 71.1998 100.976C71.1998 100.976 71.1742 101.028 71.1486 101.054C71.123 101.105 71.0974 101.157 71.0717 101.234C70.9436 101.519 70.8412 101.88 70.7643 102.268C70.6874 102.655 70.6106 103.043 70.5337 103.43C70.2775 105.006 70.1494 106.659 70.0469 108.286C69.9445 109.94 69.8932 111.593 69.8676 113.246C69.8164 116.552 69.8164 119.859 69.8164 123.165C69.8164 126.471 69.8932 129.778 70.0726 133.033C70.175 134.66 70.2775 136.313 70.4569 137.915C70.6362 139.542 70.8412 141.144 71.1486 142.693C71.3023 143.468 71.4817 144.243 71.7122 144.992C71.9172 145.741 72.1734 146.439 72.4808 147.085L72.5321 147.214C72.5577 147.24 72.5321 147.24 72.5321 147.24C72.5321 147.24 72.5321 147.265 72.5577 147.265C72.6089 147.317 72.6858 147.395 72.8139 147.472C73.0445 147.627 73.3519 147.808 73.685 147.963C74.3511 148.273 75.094 148.531 75.837 148.764C77.3486 149.229 78.937 149.564 80.5511 149.849C82.1651 150.133 83.7792 150.391 85.4188 150.572C87.0585 150.753 88.6982 150.908 90.3379 151.037C91.9775 151.14 93.6172 151.218 95.2569 151.269C98.5362 151.347 101.841 151.269 105.12 151.011C106.76 150.882 108.4 150.701 110.014 150.443C111.628 150.184 113.242 149.849 114.779 149.384C115.548 149.151 116.316 148.867 117.059 148.531C117.777 148.195 118.494 147.808 119.109 147.343C119.724 146.878 120.236 146.284 120.518 145.612C120.595 145.457 120.646 145.276 120.672 145.096L120.8 144.502C120.877 144.088 120.954 143.701 121.005 143.288C121.261 141.66 121.415 139.981 121.568 138.328C121.697 136.675 121.799 134.996 121.901 133.343C122.055 130.01 122.132 126.678 122.132 123.346C122.106 120.014 122.055 116.681 121.773 113.349C121.697 112.523 121.594 111.696 121.466 110.895C121.389 110.482 121.312 110.095 121.184 109.707C121.133 109.526 121.03 109.345 120.954 109.242C120.954 109.19 120.774 109.216 120.646 109.268C120.364 109.423 120.159 109.785 120.006 110.146C119.852 110.508 119.724 110.895 119.621 111.309C119.416 112.109 119.288 112.91 119.16 113.737C118.955 115.39 118.853 117.043 118.776 118.722C118.725 120.375 118.725 122.054 118.75 123.733C118.801 127.066 119.032 130.398 119.34 133.73C119.493 135.383 119.698 137.036 119.954 138.69C120.185 140.343 120.467 141.97 120.825 143.597C121.184 145.225 121.594 146.826 122.183 148.376C122.465 149.151 122.798 149.9 123.234 150.598C123.464 150.934 123.695 151.243 123.977 151.502C124.259 151.76 124.592 151.915 124.95 151.915C125.078 151.915 125.181 152.018 125.181 152.148C125.181 152.277 125.078 152.483 124.95 152.483Z" fill="#2D2825"/>
</svg>
