<svg width="191" height="191" viewBox="0 0 191 191" fill="none" xmlns="http://www.w3.org/2000/svg">
<circle cx="95.5" cy="95.5" r="95.5" fill="#F0F0F0"/>
<path opacity="0.7" d="M77 113.511C94.1208 113.511 108 99.5176 108 82.2556C108 64.9936 94.1208 51 77 51C59.8792 51 46 64.9936 46 82.2556C46 99.5176 59.8792 113.511 77 113.511Z" fill="#49C26D"/>
<path d="M29.359 125.898C33.158 123.936 37.7348 123.49 41.8628 124.738C43.9269 125.333 45.7516 126.492 47.7558 127.027C48.743 127.295 49.76 127.384 50.7771 127.206C51.7642 127.027 52.6916 126.552 53.2898 125.779C53.8582 124.976 54.0975 123.965 54.1872 122.955C54.2471 122.449 54.3069 121.944 54.3069 121.409L54.3368 120.636C54.3368 120.368 54.3069 120.131 54.3069 119.863C54.1872 117.812 53.7086 115.761 52.9907 113.799C51.5548 109.905 49.2814 106.337 46.7986 102.948C46.7687 102.919 46.7388 102.889 46.7388 102.859L46.7687 102.681C46.7986 102.443 46.9781 102.176 47.2174 101.997C47.4567 101.819 47.7558 101.759 47.9951 101.73C48.2643 101.7 48.5037 101.73 48.743 101.759C48.9823 101.789 49.2216 101.878 49.431 101.938C49.6703 102.027 49.9096 102.146 50.0592 102.235C50.2386 102.324 50.4181 102.413 50.5677 102.532C50.9267 102.711 51.2258 102.948 51.5548 103.157C52.8411 104.048 53.9778 105.178 54.9052 106.397C55.8325 107.645 56.6402 108.953 57.3581 110.321C57.717 111.004 58.0461 111.688 58.3452 112.402C58.6444 113.115 58.9136 113.799 59.1828 114.512C59.6913 115.939 60.1101 117.396 60.4392 118.852C60.7682 120.279 61.0674 121.647 61.5161 122.925C61.9648 124.203 62.5331 125.392 63.4305 126.403C63.8792 126.908 64.3579 127.354 64.9262 127.711C65.4946 128.068 66.1228 128.335 66.8108 128.514L66.5415 128.811C66.0928 124.53 64.5972 120.428 63.0417 116.415C61.4861 112.372 59.8409 108.329 58.9734 104.048C58.1059 99.7677 57.8965 95.3681 58.3452 91.0577C58.7939 86.7176 59.9007 82.4666 61.6656 78.4535C61.7255 78.3048 61.875 78.2454 61.9947 78.3048C62.1143 78.3346 62.1742 78.4535 62.1742 78.5724V78.6021C62.0545 80.8614 61.9349 83.0909 61.9049 85.3204C61.9049 87.5499 61.9349 89.7497 62.234 91.9198C62.5331 94.0898 63.0117 96.2302 63.8493 98.1922C64.2382 99.2029 64.7467 100.124 65.3151 101.076C65.8834 101.997 66.4817 102.919 67.1398 103.781C68.456 105.535 69.9218 107.229 71.3576 108.983C72.0756 109.845 72.7935 110.737 73.4815 111.688C74.1695 112.61 74.7977 113.561 75.396 114.542C76.5925 116.504 77.6096 118.585 78.4172 120.695C79.2548 122.836 79.8531 125.036 80.242 127.265L79.7334 127.295C80.3317 124.382 80.3018 121.379 80.0326 118.377C79.7633 115.404 79.2548 112.431 78.836 109.459C78.4172 106.486 78.0284 103.484 78.0583 100.451C78.0882 97.4193 78.6266 94.3574 79.9129 91.5928C79.9428 91.4441 80.0924 91.3847 80.2121 91.4144C80.3317 91.4441 80.4215 91.5631 80.3915 91.682V91.7711C80.3317 93.198 80.3616 94.5655 80.4813 95.9626C80.6308 97.3301 80.8702 98.6678 81.1693 100.006C81.4983 101.313 81.947 102.592 82.4257 103.84C82.9342 105.089 83.5624 106.248 84.2504 107.408C84.9384 108.537 85.7461 109.607 86.5836 110.618C87.0324 111.094 87.4511 111.599 87.9298 112.075L89.3955 113.502C90.3827 114.483 91.4296 115.523 92.3271 116.712C92.7758 117.307 93.1945 117.931 93.5535 118.615C93.9125 119.298 94.1817 120.012 94.3612 120.755L93.8826 120.904L93.4638 106.248L93.2544 98.9353C93.1945 96.4977 93.1347 94.0601 92.9552 91.6225C92.7758 89.1849 92.4766 86.777 91.9382 84.4286C91.639 83.2692 91.31 82.0802 90.8912 80.9505C90.7117 80.3857 90.4425 79.8209 90.2331 79.2561L89.8442 78.4238C89.7246 78.1562 89.6049 77.8589 89.4553 77.5914C87.3016 73.2513 84.1008 69.4165 80.242 66.4438C80.1223 66.3546 80.0924 66.206 80.1821 66.0871C80.242 65.9979 80.3616 65.9682 80.4514 65.9979H80.4813C81.1992 66.206 81.9171 66.3546 82.6051 66.6222C82.9641 66.7411 83.3231 66.86 83.6521 67.0086L84.6692 67.4545C85.0281 67.6032 85.3273 67.7815 85.6563 67.9599C85.9854 68.1382 86.3144 68.3166 86.6435 68.5247L87.6007 69.1192L88.528 69.7732C88.6776 69.8921 88.8272 69.9813 88.9767 70.1002L89.4254 70.4569C89.7246 70.6948 90.0237 70.9326 90.2929 71.2001C90.8314 71.7055 91.3997 72.2108 91.9083 72.7756C92.9552 73.8755 93.9125 75.0349 94.78 76.2834L95.4082 77.2347L96.0064 78.1859C96.0962 78.3346 96.2158 78.5129 96.3056 78.6616L96.5748 79.1669C96.7543 79.4939 96.9337 79.8209 97.1132 80.1776C97.8012 81.5154 98.3995 82.9125 98.908 84.3394C99.9251 87.1635 100.643 90.1064 101.092 93.0494C101.57 95.9924 101.81 98.9353 101.929 101.878C102.049 104.792 102.019 107.764 102.019 110.559C102.019 113.383 101.989 116.118 102.288 118.793C102.438 120.131 102.677 121.439 103.036 122.747C103.395 124.055 103.904 125.333 104.592 126.641L104.143 126.849L103.335 116.088C103.066 112.491 102.797 108.894 102.587 105.297C102.199 98.103 102.109 90.8496 103.006 83.6854C103.874 76.5212 105.728 69.4759 108.51 62.7874C111.292 56.0988 114.972 49.7967 119.429 44.1189C119.519 44 119.668 43.9702 119.788 44.0594C119.877 44.1189 119.907 44.2378 119.877 44.327V44.3567C118.412 49.8264 117.484 55.3854 117.215 60.9443C117.066 63.7387 117.096 66.5033 117.245 69.2679C117.395 72.0325 117.694 74.8268 117.963 77.6509C118.232 80.4749 118.501 83.3287 118.591 86.2122C118.651 87.6688 118.651 89.1254 118.591 90.5821C118.561 91.3252 118.531 92.0387 118.472 92.7819C118.412 93.4953 118.352 94.2385 118.262 94.9519C117.933 97.8354 117.454 100.689 116.856 103.513C116.258 106.337 115.57 109.102 114.882 111.837C114.194 114.572 113.506 117.307 112.878 120.041L112.429 122.093C112.279 122.776 112.16 123.401 112.1 123.936C112.04 124.5 112.07 124.946 112.19 125.333C112.22 125.452 112.25 125.481 112.279 125.541C112.309 125.6 112.339 125.69 112.399 125.749C112.489 125.898 112.608 126.017 112.728 126.106C112.848 126.195 112.967 126.254 113.027 126.284C113.117 126.314 113.147 126.314 113.177 126.314C113.207 126.314 113.267 126.284 113.356 126.225C113.416 126.165 113.536 126.046 113.626 125.868C113.835 125.511 114.014 124.976 114.134 124.382C114.194 124.084 114.254 123.728 114.314 123.401C114.373 123.074 114.433 122.717 114.493 122.39C114.942 119.655 115.241 116.861 115.57 114.066C116.168 108.448 116.737 102.711 118.202 97.122C118.92 94.3277 119.877 91.5928 121.134 88.9768C121.762 87.6688 122.48 86.4203 123.258 85.2015C124.065 84.0124 124.933 82.8531 125.89 81.7829C125.98 81.664 126.159 81.664 126.249 81.7532C126.339 81.8424 126.369 81.9613 126.309 82.0504C125.082 85.0231 124.215 88.1445 123.676 91.2955C123.138 94.4763 122.899 97.6868 122.839 100.897C122.749 107.348 123.437 113.799 124.155 120.22L123.676 120.101C124.723 118.317 125.531 116.385 126.04 114.364C126.309 113.353 126.518 112.342 126.698 111.302C126.847 110.261 126.997 109.221 127.087 108.18C127.296 106.1 127.356 103.989 127.446 101.908L127.655 95.6059C127.655 95.4573 127.775 95.3681 127.924 95.3681C127.984 95.3681 128.044 95.3978 128.074 95.4276L128.164 95.487C129.181 96.3788 130.018 97.4193 130.706 98.5489C130.886 98.8164 131.065 99.1137 131.215 99.411C131.364 99.7082 131.514 100.006 131.663 100.303C131.963 100.897 132.202 101.522 132.441 102.116C132.68 102.74 132.86 103.365 133.039 103.989C133.189 104.643 133.339 105.267 133.458 105.921C133.578 106.575 133.668 107.229 133.727 107.883C133.757 108.21 133.817 108.537 133.817 108.864L133.877 109.845C134.027 112.491 133.817 115.137 133.249 117.663C132.98 118.942 132.531 120.22 132.202 121.349C132.052 121.914 131.903 122.479 131.873 123.014C131.873 123.282 131.873 123.549 131.933 123.817C131.992 124.084 132.082 124.352 132.232 124.59H131.843C135.492 120.755 137.467 115.404 137.138 110.142C137.138 109.994 137.227 109.905 137.377 109.875H137.407L137.526 109.905C138.454 110.023 139.261 110.529 139.92 111.153C140.578 111.777 141.056 112.58 141.385 113.353C142.043 114.958 142.402 116.563 142.731 118.109C143.06 119.655 143.36 121.171 143.838 122.539C144.317 123.906 144.975 125.154 145.992 125.987C147.009 126.849 148.325 127.265 149.761 127.295C151.197 127.354 152.753 127.087 154.308 126.819C155.864 126.552 157.449 126.225 159.124 126.195C159.962 126.165 160.799 126.225 161.607 126.403C162.415 126.581 163.222 126.879 163.91 127.354C164.03 127.443 164.06 127.592 164 127.711C163.94 127.83 163.791 127.86 163.671 127.8C162.265 127.176 160.739 127.116 159.214 127.325C157.688 127.533 156.193 127.949 154.667 128.365C153.111 128.751 151.526 129.168 149.791 129.227C148.924 129.257 148.026 129.168 147.159 128.93C146.261 128.692 145.424 128.276 144.676 127.711C143.928 127.146 143.3 126.462 142.821 125.69C142.313 124.946 141.954 124.144 141.655 123.341C141.056 121.736 140.727 120.16 140.368 118.615C140.009 117.098 139.68 115.582 139.112 114.274C138.843 113.62 138.573 112.996 138.274 112.342C137.975 111.718 137.646 111.064 137.257 110.321L137.676 110.083C138.005 115.493 136.001 120.993 132.232 124.946C132.142 125.036 131.992 125.065 131.873 124.976L131.843 124.946C131.544 124.738 131.304 124.471 131.095 124.174C130.886 123.876 130.736 123.52 130.616 123.163C130.497 122.806 130.437 122.449 130.407 122.122C130.377 121.766 130.347 121.439 130.347 121.082C130.377 119.714 130.497 118.555 130.497 117.307C130.557 114.869 130.467 112.461 130.168 110.083L130.078 109.191L129.958 108.299C129.869 107.705 129.749 107.11 129.659 106.545C129.569 105.951 129.42 105.386 129.3 104.792C129.181 104.197 129.061 103.632 128.941 103.038C128.822 102.443 128.702 101.849 128.582 101.254C128.522 100.957 128.463 100.66 128.403 100.362C128.343 100.065 128.283 99.7677 128.223 99.4704C128.104 98.8462 127.984 98.2516 127.894 97.6273C127.805 97.0031 127.685 96.3788 127.625 95.6951L128.134 95.5762L127.924 101.878C127.834 103.989 127.775 106.1 127.565 108.18C127.476 109.221 127.326 110.291 127.176 111.331C126.997 112.372 126.788 113.412 126.518 114.453C125.98 116.504 125.172 118.496 124.095 120.339C124.035 120.458 123.856 120.517 123.736 120.428C123.676 120.398 123.617 120.309 123.617 120.22C122.899 113.799 122.211 107.348 122.3 100.838C122.33 97.5976 122.6 94.3574 123.138 91.1469C123.676 87.9364 124.544 84.7853 125.8 81.7829L126.249 82.0504C125.441 83.2098 124.723 84.3989 124.065 85.6474C123.437 86.8959 122.869 88.1742 122.36 89.4524C121.373 92.0684 120.685 94.7736 120.177 97.5084C119.16 102.978 118.95 108.597 118.591 114.245C118.412 117.069 118.202 119.923 117.843 122.806C117.813 123.163 117.754 123.52 117.694 123.876C117.634 124.233 117.604 124.56 117.544 124.976C117.395 125.779 117.215 126.611 116.737 127.503C116.497 127.949 116.168 128.424 115.719 128.841C115.271 129.257 114.673 129.584 114.014 129.762C113.356 129.941 112.638 129.911 112.04 129.762C111.442 129.614 110.903 129.346 110.455 129.019C110.006 128.692 109.617 128.306 109.288 127.86C109.138 127.652 108.989 127.414 108.869 127.146C108.75 126.908 108.63 126.611 108.57 126.373C108.241 125.392 108.211 124.411 108.271 123.579C108.331 122.717 108.48 121.944 108.6 121.231L109.019 119.12C109.617 116.326 110.275 113.531 110.933 110.796C111.591 108.062 112.25 105.327 112.818 102.592C113.386 99.8569 113.895 97.122 114.224 94.4168C114.314 93.7331 114.373 93.0494 114.433 92.3657C114.493 91.682 114.523 90.9982 114.583 90.3145C114.643 88.9471 114.702 87.5796 114.673 86.1825C114.643 83.4179 114.523 80.6235 114.343 77.7995C114.194 74.9754 114.044 72.1216 114.074 69.2381C114.074 68.5247 114.104 67.7815 114.104 67.0681C114.134 66.3546 114.164 65.6114 114.224 64.898C114.254 64.1846 114.343 63.4711 114.403 62.7279C114.493 62.0145 114.553 61.301 114.673 60.5876C115.45 54.88 116.976 49.2914 119.279 44.0594L119.728 44.2972C115.271 49.9454 111.621 56.2177 108.869 62.8468C106.117 69.4759 104.263 76.4915 103.395 83.5962C102.528 90.7307 102.617 97.9246 102.976 105.119C103.186 108.715 103.455 112.283 103.724 115.88L104.532 126.641V126.671C104.532 126.819 104.442 126.938 104.292 126.938C104.203 126.938 104.113 126.908 104.053 126.849C102.767 126.046 101.66 124.887 100.793 123.579C99.9251 122.271 99.2371 120.844 98.7585 119.358C97.8012 116.385 97.5021 113.353 97.4124 110.41C97.3825 108.953 97.4124 107.497 97.4124 106.07C97.4124 104.643 97.3824 103.216 97.3824 101.819C97.3525 100.392 97.2927 98.9948 97.203 97.5976C97.1132 96.2005 97.0235 94.8033 96.844 93.4061C96.1859 87.8769 94.8697 82.4666 92.1177 77.6509C91.9681 77.3536 91.7886 77.0563 91.5792 76.759C91.3997 76.4618 91.2203 76.1645 91.0408 75.8672C90.6519 75.3024 90.263 74.7079 89.8442 74.1728C89.4553 73.608 88.9767 73.0729 88.5579 72.5378C88.3186 72.2703 88.0793 72.0325 87.84 71.7649L87.4811 71.3785C87.3614 71.2596 87.2417 71.1407 87.1221 71.0217C86.1349 70.0408 85.0581 69.149 83.8914 68.3463C82.7248 67.5437 81.4983 66.86 80.1821 66.2357L80.4214 65.7898C84.3401 68.7922 87.5708 72.7162 89.7844 77.1158C89.934 77.3833 90.0536 77.6806 90.1733 77.9481L90.5622 78.7805C90.8015 79.3453 91.0408 79.9101 91.2502 80.5046C91.6989 81.664 92.0279 82.8531 92.3271 84.0421C92.8954 86.45 93.1945 88.8876 93.374 91.3252C93.5535 93.7628 93.5834 96.2302 93.6732 98.6678L93.8826 105.981L94.3014 120.636C94.3014 120.785 94.1817 120.904 94.062 120.904C93.9723 120.904 93.8526 120.844 93.8227 120.755C93.2544 120.279 92.7159 119.833 92.1775 119.417C91.6091 119.001 91.0707 118.585 90.5322 118.169C89.4254 117.366 88.2887 116.534 87.1819 115.612C86.6136 115.137 86.0751 114.661 85.5367 114.126C84.9982 113.591 84.4897 113.026 84.0111 112.461C83.7718 112.164 83.5325 111.867 83.3231 111.569C83.0838 111.272 82.8744 110.945 82.665 110.648C82.4556 110.321 82.2163 110.023 82.0368 109.696L81.4684 108.715C80.7505 107.378 80.1821 105.981 79.7334 104.554C79.3146 103.127 78.9856 101.64 78.836 100.184C78.6865 98.6975 78.6865 97.2112 78.836 95.7546C79.0155 94.2979 79.3146 92.8413 79.7933 91.4739L80.3018 91.6225C79.0454 94.3277 78.5369 97.3004 78.4771 100.273C78.4172 103.246 78.8061 106.248 79.2249 109.191C79.6437 112.164 80.1522 115.137 80.4214 118.139C80.6907 121.141 80.6907 124.203 80.0924 127.176C80.0625 127.325 79.9129 127.414 79.7933 127.384C79.7035 127.354 79.6138 127.295 79.5839 127.206C77.9685 123.014 75.9942 119.06 73.5413 115.404C72.3149 113.561 70.9688 111.837 69.5628 110.113C68.1569 108.388 66.6911 106.635 65.345 104.792C63.9989 102.919 62.7724 100.897 61.9648 98.6975C61.1272 96.4977 60.7084 94.2088 60.499 91.8901C60.14 87.2824 60.7682 82.7639 61.4862 78.3346L61.9947 78.4535C60.2896 82.4072 59.1828 86.6284 58.7341 90.8793C58.2854 95.16 58.4948 99.5001 59.3324 103.721C60.17 107.943 61.8152 111.956 63.3707 115.999C64.9262 120.041 66.4219 124.174 66.9005 128.543C66.9304 128.692 66.8108 128.811 66.6612 128.841H66.6313C65.8535 128.9 65.0459 128.781 64.298 128.543C63.5502 128.276 62.8323 127.889 62.1742 127.384C61.546 126.908 60.9776 126.314 60.4691 125.69C59.9606 125.036 59.5717 124.382 59.1828 123.668C58.4649 122.271 57.9563 120.844 57.4777 119.447C56.9991 118.079 56.5205 116.771 55.9521 115.464C55.6829 114.81 55.3838 114.185 55.0846 113.561C54.7855 112.937 54.4565 112.312 54.1274 111.718C53.4693 110.499 52.7215 109.34 51.9138 108.24C51.1361 107.11 50.3284 106.04 49.4609 104.94C49.2515 104.673 49.0421 104.375 48.8327 104.108C48.6233 103.84 48.384 103.513 48.2344 103.335C48.055 103.127 47.8456 102.919 47.6362 102.8C47.5464 102.74 47.4268 102.681 47.337 102.651C47.2473 102.621 47.1276 102.621 47.008 102.681L46.9781 102.413C49.4609 105.802 51.7642 109.399 53.23 113.383C53.9479 115.374 54.4265 117.455 54.5761 119.596C54.5761 119.863 54.606 120.131 54.606 120.398L54.5761 121.201C54.5761 121.736 54.5163 122.271 54.4565 122.806C54.3966 123.341 54.3069 123.876 54.1573 124.382C54.0078 124.917 53.7684 125.422 53.4394 125.868C52.7514 126.789 51.6745 127.325 50.5976 127.503C49.5207 127.711 48.384 127.592 47.337 127.325C45.2431 126.76 43.4483 125.6 41.4441 125.036C37.4655 123.847 33.0383 124.263 29.359 126.165C29.2393 126.225 29.0598 126.195 29 126.046C29.1795 126.135 29.2094 125.987 29.359 125.898Z" fill="#2D2825"/>
</svg>
